<svg xmlns="http://www.w3.org/2000/svg" xmlns:xlink="http://www.w3.org/1999/xlink" width="480" height="480" viewBox="0 0 480 480"><defs><style>.a,.h{fill:none;}.b{fill:#e6e6e6;opacity:0.3;}.b,.j,.k,.l,.n,.p,.r,.s,.u{isolation:isolate;}.c{fill:#6bdffd;}.d{fill:#fa9614;}.e,.n{fill:#44a5ff;}.f{fill:#2070ba;}.g{fill:#faad14;}.h{stroke:#f2f2f2;stroke-miterlimit:10;}.i{fill:#fff;}.j{fill:url(#a);}.k{fill:url(#b);}.l{fill:url(#c);}.m{fill:#68e1fd;}.n,.p{opacity:0.95;}.o{fill:#f0f0f0;}.p{fill:#45a7ff;}.q{fill:#f5f5f5;}.r{fill:url(#d);}.s{fill:url(#e);}.t{fill:#fa8f14;}.u{fill:#ff8522;opacity:0.15;}.v{fill:#ff9f57;}</style><linearGradient id="a" x1="0.234" y1="0.81" x2="0.514" y2="0.378" gradientUnits="objectBoundingBox"><stop offset="0" stop-color="#f5f5f5" stop-opacity="0"/><stop offset="1" stop-color="#1890ff"/></linearGradient><linearGradient id="b" x1="0.258" y1="0.771" x2="0.472" y2="0.114" gradientUnits="objectBoundingBox"><stop offset="0" stop-color="#e1e1e1" stop-opacity="0"/><stop offset="1" stop-color="#1890ff"/></linearGradient><linearGradient id="c" x1="0.273" y1="0.77" x2="0.722" y2="0.048" xlink:href="#b"/><linearGradient id="d" x1="0.064" y1="0.831" x2="0.483" y2="0.088" gradientUnits="objectBoundingBox"><stop offset="0" stop-color="#fff" stop-opacity="0"/><stop offset="0.98" stop-color="#84210b"/></linearGradient><linearGradient id="e" x1="0.211" y1="0.86" x2="0.5" y2="0.418" gradientUnits="objectBoundingBox"><stop offset="0" stop-color="#fff" stop-opacity="0"/><stop offset="1" stop-color="#84470b"/></linearGradient></defs><g transform="translate(-377 -134)"><rect class="a" width="480" height="480" transform="translate(377 134)"/><g transform="translate(-10.052 -0.364)"><path class="b" d="M59.548,139.589S-14.208,306.182,179.984,308.517,462.952,285.263,463.83,200.55,394.772,36.629,272.864,35.751,85.028,66.752,59.548,139.589Z" transform="translate(372.249 202.975)"/><path class="c" d="M27.344,147.489,164.988,67.435a6.507,6.507,0,0,1,6.506,0L377.326,185.226a6.506,6.506,0,0,1,0,11.287l-131.6,76a21.243,21.243,0,0,1-21.244,0L27.405,158.755a6.506,6.506,0,0,1-.061-11.266Z" transform="translate(419.878 201.013)"/><path class="d" d="M172.144,84.751V25.11h-3.958V84.477A4.977,4.977,0,0,0,172.144,84.751Z" transform="translate(419.878 201.013)"/><path class="e" d="M83.108,174l119.628,68.543,29.4-17.285L113.365,156.522Z" transform="translate(419.878 201.013)"/><path class="f" d="M113.365,156.522v34.814L83.108,174Z" transform="translate(419.878 201.013)"/><ellipse class="g" cx="15.022" cy="17.326" rx="15.022" ry="17.326" transform="translate(572.457 214.096) rotate(-11)"/><ellipse class="h" cx="12.078" cy="13.936" rx="12.078" ry="13.936" transform="translate(575.993 216.862) rotate(-11)"/><path class="i" d="M171.657,18.533a2.234,2.234,0,0,0-2.944,0c-.883.923-.578,2.2-.578,3.37v8a2.153,2.153,0,0,0,2.933,2.152c1.208-.457,1.106-1.655,1.106-2.731V21.639c0-.893.274-2.03-.3-2.863A1.641,1.641,0,0,0,171.657,18.533Z" transform="translate(419.878 201.013)"/><path class="i" d="M169.718,34.144a1.257,1.257,0,0,0-.761.73c-.6,1.482,1.015,3.238,2.4,2.03a1.695,1.695,0,0,0-.5-2.649A1.514,1.514,0,0,0,169.718,34.144Z" transform="translate(419.878 201.013)"/><path class="j" d="M200.046,120.774,134.23,162.148,85.28,137.805l59.469-34.723" transform="translate(419.878 201.013)"/><path class="k" d="M240.677,162.277a46.925,46.925,0,0,1-14.474,4.415c-7.613,1.117-17.976,2.964-24.979-1.177-6.557-3.877-6.923-10.7-4.365-16.971L148.19,176.7l50.8,29.338L256.47,171.98Z" transform="translate(419.878 201.013)"/><path class="l" d="M309.961,208.236l-48.74,28.593L217.007,212.3l51.207-29.648" transform="translate(419.878 201.013)"/><path class="m" d="M329.286,181.735l-2.507-1.452-9.652.924.883-2.7-12.251-3.39h-37.8l-21.9,6.9v12.6l19.976,11.53h-1.015v12.637l13.8,7.968,11.469-6.577,7.379,4.263,11.886-6.912v-8.547l33.271-19.336h.092v-12.6Zm-40.955,23.558-17.5-10.15,42.2-4.253Z" transform="translate(419.878 201.013)"/><path class="n" d="M329.286,181.735l-2.507-1.452-9.652.924.883-2.7-12.251-3.39h-37.8l-21.9,6.9v12.6l19.976,11.53h-1.015v12.637l13.8,7.968,11.469-6.577,7.379,4.263,11.886-6.912v-8.547l33.271-19.336h.092v-12.6Zm-40.955,23.558-17.5-10.15,42.2-4.253Z" transform="translate(419.878 201.013)"/><path class="o" d="M302.135,200.634l7.379,4.263-11.886,6.912-7.379-4.263-11.439,6.648-13.8-7.967,11.439-6.649-30.45-17.549,13.723-7.978,66.99-6.384,16.1,9.3Zm-13.8-7.968,24.705-14.352-42.2,4.253,17.5,10.15" transform="translate(419.878 201.013)"/><path class="m" d="M267.8,153.254V138.9l-10.15,1.238-.2-.122a40.182,40.182,0,0,0-5.654-2.669c-1.2-3.187-4.06-9.288-8.424-10.445-6.03-1.583-16.169.213-16.169.213L204.807,136.9c.1,0,1.654.437,3.877.944a70.55,70.55,0,0,0-12.18,5.633,56.348,56.348,0,0,0-7.288,4.974l-8.972,1.086V164.1h0q.07,8.729,10.444,14.738,11.52,6.648,28.775,5.948a68.894,68.894,0,0,0,32.186-9.46q15.012-8.729,16.149-18.706A14.954,14.954,0,0,0,267.8,153.254Zm-57.571-1.807a47.253,47.253,0,0,1,19.64-6.669q9.582-.831,15.225,2.406a11.058,11.058,0,0,1,2.619,2.03c-5.948,7.765-15.347,12.992-24.99,15.012-7.419,1.553-14.057,1.066-20.3-3.411-.6-.426-1.258-.913-1.948-1.431q2.8-3.9,9.764-7.947Z" transform="translate(419.878 201.013)"/><path class="n" d="M267.8,153.254V138.9l-10.15,1.238-.2-.122a40.182,40.182,0,0,0-5.654-2.669c-1.2-3.187-4.06-9.288-8.424-10.445-6.03-1.583-16.169.213-16.169.213L204.807,136.9c.1,0,1.654.437,3.877.944a70.55,70.55,0,0,0-12.18,5.633,56.348,56.348,0,0,0-7.288,4.974l-8.972,1.086V164.1h0q.07,8.729,10.444,14.738,11.52,6.648,28.775,5.948a68.894,68.894,0,0,0,32.186-9.46q15.012-8.729,16.149-18.706A14.954,14.954,0,0,0,267.8,153.254Zm-57.571-1.807a47.253,47.253,0,0,1,19.64-6.669q9.582-.831,15.225,2.406a11.058,11.058,0,0,1,2.619,2.03c-5.948,7.765-15.347,12.992-24.99,15.012-7.419,1.553-14.057,1.066-20.3-3.411-.6-.426-1.258-.913-1.948-1.431q2.8-3.9,9.764-7.947Z" transform="translate(419.878 201.013)"/><path class="o" d="M267.8,142.342q-1.137,9.978-16.149,18.707a68.886,68.886,0,0,1-32.257,9.429q-17.254.7-28.775-5.948t-10.353-16.6q1.167-10,16.169-18.717a68.782,68.782,0,0,1,32.246-9.409q17.256-.69,28.745,5.958T267.8,142.342ZM218.225,159.75a47.258,47.258,0,0,0,19.64-6.679q10.059-5.847,11.46-11.4t-4.223-8.8q-5.624-3.249-15.225-2.406a47.239,47.239,0,0,0-19.64,6.669q-10.049,5.835-11.449,11.4t4.212,8.8q5.633,3.247,15.225,2.416" transform="translate(419.878 201.013)"/><path class="m" d="M197.549,108.665l-2.507-1.452-9.652.924.883-2.7-12.251-3.39H136.2l-21.9,6.9v12.586l19.975,11.53h-1.015V145.7l13.8,7.968,11.439-6.648,7.379,4.263,11.886-6.913v-8.546l33.272-19.336h.091V103.975Zm-40.955,23.558-17.5-10.15,42.2-4.253Z" transform="translate(419.878 201.013)"/><path class="p" d="M197.549,108.665l-2.507-1.452-9.652.924.883-2.7-12.251-3.39H136.2l-21.9,6.9v12.586l19.975,11.53h-1.015V145.7l13.8,7.968,11.439-6.648,7.379,4.263,11.886-6.913v-8.546l33.272-19.336h.091V103.975Zm-40.955,23.558-17.5-10.15,42.2-4.253Z" transform="translate(419.878 201.013)"/><path class="q" d="M170.4,127.564l7.379,4.263-11.885,6.912-7.379-4.263-11.44,6.649-13.8-7.968,11.44-6.649-30.45-17.549,13.722-7.978,66.99-6.384,16.149,9.287Zm-13.8-7.968L181.3,105.244l-42.244,4.243,17.5,10.15" transform="translate(419.878 201.013)"/><path class="r" d="M79.229,140.045,38.5,164.084l24.756,15.042,27.577-16.169C82.469,158.288,86.679,145.983,79.229,140.045Z" transform="translate(419.878 201.013)"/><path class="s" d="M228.192,240.29,199,257.62l24.966,14.5,28.417-16.538C244.016,250.958,225.582,254.432,228.192,240.29Z" transform="translate(419.878 201.013)"/><path class="t" d="M78.967,169.961,101.6,156.532a3.462,3.462,0,0,0,.121-5.887l-18.706-12.18a5.8,5.8,0,0,0-6.4,0L54.384,153.426a3.462,3.462,0,0,0,.152,5.837l17.7,10.687A6.567,6.567,0,0,0,78.967,169.961Z" transform="translate(419.878 201.013)"/><path class="g" d="M78.967,167.931,101.6,154.5a3.462,3.462,0,0,0,.121-5.887l-18.706-12.18a5.8,5.8,0,0,0-6.4,0L54.384,151.4a3.462,3.462,0,0,0,.152,5.837l17.691,10.616A6.569,6.569,0,0,0,78.967,167.931Z" transform="translate(419.878 201.013)"/><path class="d" d="M75.2,114.125,63.184,152.137S60.25,161.78,78.277,160.8s15.651-9.926,15.651-9.926L81.9,114.125" transform="translate(419.878 201.013)"/><path class="i" d="M70.745,128.2s2.386,2.466,7.877,2.466c6.861,0,7.592-3.38,7.592-3.38l2.517,7.684s-1.806,4.334-10.15,4.192c-7.511-.122-10.454-2.822-10.454-2.822" transform="translate(419.878 201.013)"/><path class="i" d="M66.28,142.688a17.174,17.174,0,0,0,12.18,4.831c8.921-.1,12.271-6.445,12.271-6.445l2.649,8.12s-3.827,5.937-14.829,6.729c-10.373.741-14.829-5.075-14.829-5.075" transform="translate(419.878 201.013)"/><path class="u" d="M77.79,114.43H75.222L63.2,152.421s-2.73,8.993,13.307,8.729C76.856,145.56,77.637,129.99,77.79,114.43Z" transform="translate(419.878 201.013)"/><ellipse class="v" cx="3.421" cy="1.959" rx="3.421" ry="1.959" transform="translate(495.079 313.463)"/><path class="t" d="M237.145,265.157l22.634-13.428a3.461,3.461,0,0,0,.122-5.887l-18.707-12.18a5.794,5.794,0,0,0-6.4,0l-22.229,14.961a3.46,3.46,0,0,0,.153,5.836L230.4,265.137A6.566,6.566,0,0,0,237.145,265.157Z" transform="translate(419.878 201.013)"/><path class="g" d="M237.145,263.117l22.634-13.428a3.461,3.461,0,0,0,.122-5.887l-18.707-12.18a5.794,5.794,0,0,0-6.4,0l-22.229,14.961a3.46,3.46,0,0,0,.153,5.836L230.4,263.107A6.566,6.566,0,0,0,237.145,263.117Z" transform="translate(419.878 201.013)"/><path class="d" d="M233.379,209.322l-12.018,38.012s-2.933,9.643,15.093,8.668,15.652-9.927,15.652-9.927l-12.018-36.753" transform="translate(419.878 201.013)"/><path class="i" d="M228.923,223.4s2.385,2.467,7.876,2.467c6.862,0,7.593-3.38,7.593-3.38l2.517,7.683s-1.807,4.334-10.15,4.192c-7.511-.121-10.455-2.821-10.455-2.821" transform="translate(419.878 201.013)"/><path class="i" d="M224.467,237.884a17.176,17.176,0,0,0,12.18,4.832c8.922-.1,12.272-6.445,12.272-6.445l2.649,8.12s-3.827,5.937-14.829,6.729c-10.374.741-14.83-5.075-14.83-5.075" transform="translate(419.878 201.013)"/><path class="u" d="M235.977,209.607H233.4l-12.017,38.011s-2.731,8.993,13.306,8.729C235.033,240.757,235.815,225.187,235.977,209.607Z" transform="translate(419.878 201.013)"/><ellipse class="v" cx="3.421" cy="1.959" rx="3.421" ry="1.959" transform="translate(653.257 408.66)"/></g></g></svg>