<?xml version="1.0" encoding="UTF-8" standalone="no"?><!DOCTYPE svg PUBLIC "-//W3C//DTD SVG 1.1//EN" "http://www.w3.org/Graphics/SVG/1.1/DTD/svg11.dtd"><svg width="100%" height="100%" viewBox="0 0 1667 1667" version="1.1" xmlns="http://www.w3.org/2000/svg" xmlns:xlink="http://www.w3.org/1999/xlink" xml:space="preserve" xmlns:serif="http://www.serif.com/" style="fill-rule:evenodd;clip-rule:evenodd;stroke-linejoin:round;stroke-miterlimit:2;"><rect id="Artboard1" x="0" y="0" width="1666.67" height="1666.67" style="fill:none;"/><g id="Artboard11" serif:id="Artboard1"><path d="M159.385,860.372c86.177,218.03 105.154,445.273 441.833,435.161c336.679,-10.113 928.071,-213.494 921.2,-442.258c-6.871,-228.763 -195.519,-366.655 -508.5,-458.54c-366.027,-107.46 -973.514,164.617 -854.533,465.637" style="fill:#f9ae42;fill-rule:nonzero;"/><g><g><g><g><path d="M1453.42,952.082c-176.261,-11.244 -643.404,9.417 -859.165,-0c-25.283,-1.104 -46.756,-20.533 -45.823,-45.823c5.059,-137.012 -6.421,-418.79 0,-572.748c1.054,-25.285 20.519,-45.442 45.823,-45.823c225.996,-3.412 656.921,-8.881 859.165,0c25.283,1.111 45.823,20.517 45.823,45.823c-0,0 3.812,235.215 -1.025,317.071c-2.865,48.5 3.331,189.827 1.025,255.677c-0.886,25.292 -20.567,47.433 -45.823,45.823" style="fill-rule:nonzero;stroke:#fff;stroke-width:4.17px;"/><path d="M1453.42,952.082c-176.261,-11.244 -643.404,9.417 -859.165,-0c-25.283,-1.104 -46.756,-20.533 -45.823,-45.823c5.059,-137.012 -6.421,-418.79 0,-572.748c1.054,-25.285 20.519,-45.442 45.823,-45.823c225.996,-3.412 656.921,-8.881 859.165,0c25.283,1.111 45.823,20.517 45.823,45.823c-0,0 3.812,235.215 -1.025,317.071c-2.865,48.5 3.331,189.827 1.025,255.677c-0.886,25.292 -20.567,47.433 -45.823,45.823Z" style="fill:none;fill-rule:nonzero;stroke:#000;stroke-width:4.17px;stroke-linejoin:miter;stroke-miterlimit:10;"/><path d="M1498.3,334.448c-0,-25.308 -20.519,-45.423 -45.823,-45.823c-215.369,-3.412 -638.638,-4.506 -859.165,0c-25.302,0.517 -45.823,20.515 -45.823,45.823l950.811,0Z" style="fill:#fff;fill-rule:nonzero;stroke:#000;stroke-width:4.17px;stroke-linejoin:miter;stroke-miterlimit:10;"/><path d="M1380.04,300.89c6.441,-0 11.664,5.223 11.664,11.664c0,6.444 -5.223,11.667 -11.664,11.667c-6.442,0 -11.665,-5.223 -11.665,-11.667c0,-6.441 5.223,-11.664 11.665,-11.664" style="fill-rule:nonzero;stroke:#fff;stroke-width:4.17px;"/><ellipse cx="1380.04" cy="312.555" rx="11.665" ry="11.666" style="fill:#fff;stroke:#000;stroke-width:4.17px;stroke-linecap:round;stroke-miterlimit:4;"/><path d="M1420.98,301.042c6.358,1.029 10.679,7.02 9.648,13.379c-1.029,6.358 -7.019,10.679 -13.377,9.648c-6.361,-1.03 -10.679,-7.019 -9.65,-13.38c1.031,-6.358 7.021,-10.677 13.379,-9.647" style="fill-rule:nonzero;stroke:#fff;stroke-width:4.17px;"/><path d="M1420.98,301.041c-6.355,-1.029 -12.35,3.295 -13.379,9.65c-1.03,6.355 3.294,12.35 9.649,13.379c6.355,1.029 12.35,-3.295 13.379,-9.65c1.03,-6.355 -3.294,-12.35 -9.649,-13.379Z" style="fill:#fff;stroke:#000;stroke-width:4.17px;stroke-linecap:round;stroke-miterlimit:4;"/><path d="M1458.2,300.89c6.442,-0 11.665,5.223 11.665,11.664c0,6.444 -5.223,11.667 -11.665,11.667c-6.443,0 -11.664,-5.223 -11.664,-11.667c-0,-6.441 5.221,-11.664 11.664,-11.664" style="fill-rule:nonzero;stroke:#fff;stroke-width:4.17px;"/><ellipse cx="1458.2" cy="312.555" rx="11.665" ry="11.666" style="fill:#fff;stroke:#000;stroke-width:4.17px;stroke-linecap:round;stroke-miterlimit:4;"/></g><g><g><g><g><path d="M1006.18,469.393c0.004,-0.293 -2.802,-0.467 -5.115,-0.466c-29.456,0.01 -58.899,0.124 -88.354,0.142c-83.197,0.05 -166.401,0.027 -249.599,0.027c-2.306,0 -5.195,0.168 -5.195,0.463c-0,5.75 1.228,11.499 1.121,17.248c-0.035,1.919 -1.011,3.837 -1.109,5.756c-0.015,0.29 2.822,0.462 5.101,0.462c112.521,-0.003 225.042,0 337.563,0c2.298,0 5.204,-0.168 5.164,-0.464c1.211,-2.134 -0.345,-4.269 0.054,-6.405c0.576,-3.084 2.391,-6.165 2.525,-9.25c0.108,-2.504 -1.295,-5.012 -2.156,-7.513Z" style="fill:#fff;stroke:#fff;stroke-width:4.17px;stroke-linecap:round;stroke-miterlimit:1.5;"/><path d="M1209.46,469.393c0.002,-0.293 -1.483,-0.467 -2.706,-0.466c-15.582,0.01 -31.158,0.124 -46.74,0.142c-44.011,0.05 -88.026,0.027 -132.038,0.027c-1.22,0 -2.748,0.168 -2.748,0.463c-0,5.75 0.649,11.499 0.593,17.248c-0.019,1.919 -0.535,3.837 -0.587,5.756c-0.008,0.29 1.493,0.462 2.699,0.462c59.523,-0.003 119.047,0 178.571,0c1.216,0 2.753,-0.168 2.732,-0.464c0.641,-2.134 -0.183,-4.269 0.028,-6.405c0.305,-3.084 1.265,-6.165 1.336,-9.25c0.057,-2.504 -0.685,-5.012 -1.14,-7.513Z" style="fill:#fff;stroke:#fff;stroke-width:4.17px;stroke-linecap:round;stroke-miterlimit:1.5;"/><path d="M1392.52,469.393c0.001,-0.293 -1.282,-0.467 -2.339,-0.466c-13.466,0.01 -26.927,0.124 -40.393,0.142c-38.035,0.05 -76.073,0.027 -114.108,0.027c-1.055,0 -2.375,0.168 -2.375,0.463c-0,5.75 0.561,11.499 0.512,17.248c-0.016,1.919 -0.462,3.837 -0.507,5.756c-0.007,0.29 1.29,0.462 2.332,0.462c51.441,-0.003 102.882,0 154.323,0c1.051,0 2.379,-0.168 2.361,-0.464c0.554,-2.134 -0.158,-4.269 0.024,-6.405c0.264,-3.084 1.094,-6.165 1.155,-9.25c0.05,-2.504 -0.592,-5.012 -0.985,-7.513Z" style="fill:#fff;stroke:#fff;stroke-width:4.17px;stroke-linecap:round;stroke-miterlimit:1.5;"/></g></g><g><path d="M1230.96,780.688c-0.002,-0.292 1.308,-0.466 2.388,-0.466c13.748,0.01 27.49,0.125 41.239,0.143c38.831,0.049 77.667,0.027 116.499,0.027c1.076,-0 2.425,0.168 2.425,0.463c-0,5.749 -0.573,11.499 -0.524,17.247c0.017,1.92 0.472,3.837 0.518,5.757c0.007,0.29 -1.317,0.462 -2.381,0.462c-52.519,-0.003 -105.037,-0 -157.556,-0c-1.073,-0 -2.429,-0.168 -2.41,-0.464c-0.566,-2.134 0.161,-4.27 -0.025,-6.406c-0.269,-3.084 -1.117,-6.164 -1.179,-9.25c-0.051,-2.503 0.604,-5.012 1.006,-7.513Z" style="fill:#fff;stroke:#fff;stroke-width:4.17px;stroke-linecap:round;stroke-miterlimit:1.5;"/><path d="M841.968,780.688c-0.002,-0.292 1.482,-0.466 2.706,-0.466c15.582,0.01 31.157,0.125 46.739,0.143c44.012,0.049 88.027,0.027 132.039,0.027c1.219,-0 2.748,0.168 2.748,0.463c-0,5.749 -0.65,11.499 -0.593,17.247c0.019,1.92 0.535,3.837 0.587,5.757c0.008,0.29 -1.493,0.462 -2.699,0.462c-59.524,-0.003 -119.048,-0 -178.572,-0c-1.215,-0 -2.753,-0.168 -2.731,-0.464c-0.641,-2.134 0.182,-4.27 -0.029,-6.406c-0.304,-3.084 -1.265,-6.164 -1.336,-9.25c-0.057,-2.503 0.685,-5.012 1.141,-7.513Z" style="fill:#fff;stroke:#fff;stroke-width:4.17px;stroke-linecap:round;stroke-miterlimit:1.5;"/><path d="M658.905,780.688c-0.002,-0.292 1.281,-0.466 2.338,-0.466c13.467,0.01 26.927,0.125 40.393,0.143c38.035,0.049 76.074,0.027 114.109,0.027c1.054,-0 2.375,0.168 2.375,0.463c-0,5.749 -0.561,11.499 -0.513,17.247c0.017,1.92 0.463,3.837 0.508,5.757c0.006,0.29 -1.291,0.462 -2.333,0.462c-51.441,-0.003 -102.882,-0 -154.323,-0c-1.05,-0 -2.379,-0.168 -2.36,-0.464c-0.554,-2.134 0.158,-4.27 -0.025,-6.406c-0.263,-3.084 -1.093,-6.164 -1.154,-9.25c-0.05,-2.503 0.591,-5.012 0.985,-7.513Z" style="fill:#fff;stroke:#fff;stroke-width:4.17px;stroke-linecap:round;stroke-miterlimit:1.5;"/></g><g><g><path d="M984.768,549.384c0.002,-0.292 -1.364,-0.467 -2.489,-0.466c-14.332,0.01 -28.658,0.125 -42.989,0.142c-40.481,0.05 -80.964,0.027 -121.445,0.027c-1.122,0 -2.528,0.169 -2.528,0.464c0,5.749 0.597,11.498 0.546,17.247c-0.018,1.92 -0.493,3.837 -0.54,5.756c-0.007,0.291 1.373,0.463 2.482,0.463c54.748,-0.004 109.496,-0 164.245,-0c1.118,-0 2.532,-0.169 2.512,-0.464c0.589,-2.135 -0.168,-4.27 0.026,-6.406c0.28,-3.084 1.164,-6.165 1.229,-9.25c0.053,-2.504 -0.63,-5.012 -1.049,-7.513Z" style="fill:#fff;stroke:#fff;stroke-width:4.17px;stroke-linecap:round;stroke-miterlimit:1.5;"/><path d="M1248.24,549.384c0.003,-0.292 -1.936,-0.467 -3.534,-0.466c-20.351,0.01 -40.693,0.125 -61.043,0.142c-57.48,0.05 -114.965,0.027 -172.446,0.027c-1.593,0 -3.589,0.169 -3.589,0.464c-0,5.749 0.848,11.498 0.774,17.247c-0.024,1.92 -0.698,3.837 -0.766,5.756c-0.01,0.291 1.95,0.463 3.525,0.463c77.739,-0.004 155.479,-0 233.219,-0c1.588,-0 3.595,-0.169 3.567,-0.464c0.837,-2.135 -0.238,-4.27 0.038,-6.406c0.398,-3.084 1.652,-6.165 1.744,-9.25c0.075,-2.504 -0.894,-5.012 -1.489,-7.513Z" style="fill:#fff;stroke:#fff;stroke-width:4.17px;stroke-linecap:round;stroke-miterlimit:1.5;"/><path d="M1392.73,549.384c0.001,-0.292 -1.007,-0.467 -1.838,-0.466c-10.585,0.01 -21.165,0.125 -31.75,0.142c-29.896,0.05 -59.795,0.027 -89.692,0.027c-0.828,0 -1.866,0.169 -1.866,0.464c-0,5.749 0.441,11.498 0.402,17.247c-0.012,1.92 -0.363,3.837 -0.398,5.756c-0.006,0.291 1.014,0.463 1.833,0.463c40.434,-0.004 80.867,-0 121.301,-0c0.826,-0 1.87,-0.169 1.856,-0.464c0.435,-2.135 -0.124,-4.27 0.019,-6.406c0.207,-3.084 0.859,-6.165 0.907,-9.25c0.039,-2.504 -0.465,-5.012 -0.774,-7.513Z" style="fill:#fff;stroke:#fff;stroke-width:4.17px;stroke-linecap:round;stroke-miterlimit:1.5;"/></g></g><g><path d="M1029.25,624.384c0.002,-0.292 -1.722,-0.467 -3.143,-0.466c-18.094,0.01 -36.18,0.125 -54.274,0.142c-51.106,0.05 -102.216,0.027 -153.323,0.027c-1.416,0 -3.191,0.169 -3.191,0.464c0,5.749 0.754,11.498 0.689,17.247c-0.022,1.92 -0.621,3.837 -0.682,5.756c-0.009,0.291 1.734,0.463 3.134,0.463c69.119,-0.004 138.238,-0 207.357,-0c1.412,-0 3.197,-0.169 3.172,-0.464c0.744,-2.135 -0.212,-4.27 0.033,-6.406c0.354,-3.084 1.469,-6.165 1.552,-9.25c0.066,-2.504 -0.795,-5.012 -1.324,-7.513Z" style="fill:#fff;stroke:#fff;stroke-width:4.17px;stroke-linecap:round;stroke-miterlimit:1.5;"/><path d="M1392.73,624.384c0.001,-0.292 -1.007,-0.467 -1.838,-0.466c-10.585,0.01 -21.165,0.125 -31.75,0.142c-29.896,0.05 -59.795,0.027 -89.692,0.027c-0.828,0 -1.866,0.169 -1.866,0.464c-0,5.749 0.441,11.498 0.402,17.247c-0.012,1.92 -0.363,3.837 -0.398,5.756c-0.006,0.291 1.014,0.463 1.833,0.463c40.434,-0.004 80.867,-0 121.301,-0c0.826,-0 1.87,-0.169 1.856,-0.464c0.435,-2.135 -0.124,-4.27 0.019,-6.406c0.207,-3.084 0.859,-6.165 0.907,-9.25c0.039,-2.504 -0.465,-5.012 -0.774,-7.513Z" style="fill:#fff;stroke:#fff;stroke-width:4.17px;stroke-linecap:round;stroke-miterlimit:1.5;"/></g><g><path d="M999.442,699.384c0.002,-0.292 -1.482,-0.467 -2.705,-0.466c-15.573,0.01 -31.139,0.125 -46.712,0.142c-43.986,0.05 -87.975,0.027 -131.961,0.027c-1.219,0 -2.747,0.169 -2.747,0.464c0,5.749 0.649,11.498 0.593,17.247c-0.019,1.92 -0.535,3.837 -0.587,5.756c-0.008,0.291 1.493,0.463 2.697,0.463c59.49,-0.004 118.979,-0 178.468,-0c1.215,-0 2.751,-0.169 2.73,-0.464c0.64,-2.135 -0.183,-4.27 0.028,-6.406c0.305,-3.084 1.265,-6.165 1.335,-9.25c0.058,-2.504 -0.684,-5.012 -1.139,-7.513Z" style="fill:#fff;stroke:#fff;stroke-width:4.17px;stroke-linecap:round;stroke-miterlimit:1.5;"/><path d="M1392.91,699.384c0.001,-0.292 -0.777,-0.467 -1.418,-0.466c-8.163,0.01 -16.323,0.125 -24.486,0.142c-23.056,0.05 -46.114,0.027 -69.171,0.027c-0.639,0 -1.44,0.169 -1.44,0.464c0,5.749 0.34,11.498 0.311,17.247c-0.01,1.92 -0.28,3.837 -0.308,5.756c-0.004,0.291 0.783,0.463 1.414,0.463c31.183,-0.004 62.366,-0 93.549,-0c0.637,-0 1.442,-0.169 1.431,-0.464c0.336,-2.135 -0.095,-4.27 0.015,-6.406c0.16,-3.084 0.663,-6.165 0.7,-9.25c0.03,-2.504 -0.359,-5.012 -0.597,-7.513Z" style="fill:#fff;stroke:#fff;stroke-width:4.17px;stroke-linecap:round;stroke-miterlimit:1.5;"/></g></g><g transform="matrix(87.9124,0,0,87.9124,737.625,428.157)"></g><text x="592.833px" y="428.157px" style="font-family:'ClashDisplay-Semibold', 'Clash Display';font-weight:600;font-size:87.912px;fill:#fff;">&lt; /&gt;</text><g transform="matrix(87.9124,0,0,87.9124,1434.29,914.084)"></g><text x="1289.5px" y="914.084px" style="font-family:'ClashDisplay-Semibold', 'Clash Display';font-weight:600;font-size:87.912px;fill:#fff;">&lt; /&gt;</text></g></g><g><path d="M1239.43,814.966c4.409,5.617 9.494,10.615 14.738,15.467c2.625,2.423 5.319,4.785 8.087,7.077c1.288,1.235 3.034,2.05 5.082,2.592c2.035,0.552 4.05,1.12 5.389,2.31c10.036,10.119 18.202,15.087 28.045,25.38c4.948,5.123 9.9,10.244 14.763,15.446c4.883,5.182 18.025,20.346 22.827,25.603c9.684,10.441 12.869,16.15 22.134,26.971c5.667,6.619 4.896,16.577 -1.723,22.244c-6.346,5.433 -15.8,4.91 -21.56,-0.975c-9.942,-10.204 -16.794,-17.671 -26.319,-28.256c-4.802,-5.259 -9.504,-10.607 -14.223,-15.94c-4.743,-5.31 -9.393,-10.704 -14.05,-16.094c-9.364,-10.733 -21.331,-24.646 -30.504,-35.554c-1.063,-1.44 -1.448,-3.498 -1.815,-5.575c-0.352,-2.088 -1.008,-3.9 -2.121,-5.294c-2.033,-2.966 -4.141,-5.86 -6.318,-8.694c-4.359,-5.66 -8.88,-11.175 -14.073,-16.075c-3.177,-2.993 -3.323,-7.997 -0.329,-11.175c2.995,-3.177 8,-3.322 11.177,-0.329c0.279,0.265 0.56,0.579 0.793,0.871" style="fill:#fff;fill-rule:nonzero;stroke:#000;stroke-width:4.17px;"/><path d="M1223.46,809.543c-22.277,20.349 -53.83,30.83 -81.79,32.065c-35.373,1.563 -67.309,-11.79 -93.054,-39.973c-23.212,-25.411 -32.18,-58.207 -30.571,-90.055c1.588,-31.415 13.421,-61.9 38.479,-84.789c23.07,-21.073 50.971,-29.487 79.929,-30.081c34.403,-0.706 69.896,10.567 94.932,37.975c18.604,20.367 28.88,45.999 31.489,71.488c3.856,37.66 -9.311,75.872 -39.414,103.37m-178.692,-195.621c-57.567,52.586 -61.59,141.888 -9.006,199.454c52.585,57.565 141.87,61.605 199.437,9.019c57.567,-52.583 61.621,-141.885 9.038,-199.452c-52.586,-57.565 -141.902,-61.606 -199.469,-9.021" style="fill:#fff;fill-rule:nonzero;stroke:#000;stroke-width:4.17px;"/></g><circle cx="1139.38" cy="721.217" r="124.393" style="fill:#fff;fill-opacity:0;"/><clipPath id="_clip1"><circle cx="1139.38" cy="721.217" r="124.393"/></clipPath><g clip-path="url(#_clip1)"><g><path d="M1012.69,662.418c7.45,0 12.9,-4.2 12.9,-10.4l0,-0.55l-5.35,0l0,0.35c0,3.85 -2.8,5.75 -7.65,5.75c-5.6,0 -8.1,-2.7 -8.1,-8.05c0,-5.45 2.5,-8.1 8.1,-8.1c4.85,0 7.65,1.9 7.65,5.75l0,0.3l5.35,0l0,-0.5c0,-6.2 -5.45,-10.4 -12.9,-10.4c-8.2,0 -13.55,5.2 -13.55,12.95c0,7.65 5.35,12.9 13.55,12.9Z" style="fill:#fff;fill-rule:nonzero;"/><path d="M1034.99,661.918l0,-10.15l7.1,0l7.35,10.15l6.35,0l-9.3,-12.9l9.35,-11.95l-6.3,0l-7.45,9.85l-7.1,0l0,-18.5l-5.4,0l0,33.5l5.4,0Z" style="fill:#fff;fill-rule:nonzero;"/><path d="M1072.44,634.168l0,-5.75l-5.4,0l0,5.75l5.4,0Zm0,27.75l0,-24.85l-5.4,0l0,24.85l5.4,0Z" style="fill:#fff;fill-rule:nonzero;"/><path d="M1084.74,661.918l0,-20.35l8.9,0l0,-4.5l-9,0c-0.3,-3.6 1.75,-4.65 5.7,-4.65l3.3,0l0,-4l-2.45,0c-7.05,0 -11.2,3.2 -11.8,8.65l-3.8,0l0,4.5l3.75,0l0,20.35l5.4,0Z" style="fill:#fff;fill-rule:nonzero;"/><path d="M1110.59,661.918l0,-12.3c0,-5.4 2.45,-8.2 7.9,-8.2c5.15,0 7.25,2.35 7.25,7l0,13.5l5.4,0l0,-14.95c0,-5.75 -3.4,-10.4 -10.3,-10.4c-6.3,0 -9.6,4 -10.35,8.2l-0.35,0l0,-7.7l-4.95,0l0,24.85l5.4,0Z" style="fill:#fff;fill-rule:nonzero;"/><path d="M1146.29,662.418c6.4,0 9.7,-4 10.5,-8.2l0.3,0l0,7.7l4.95,0l0,-24.85l-5.35,0l0,12.3c0,5.4 -2.55,8.2 -8.05,8.2c-5.25,0 -7.4,-2.35 -7.4,-7l0,-13.5l-5.35,0l0,14.95c0,5.75 3.4,10.4 10.4,10.4Z" style="fill:#fff;fill-rule:nonzero;"/><path d="M1172.34,661.918l0,-12.3c0,-5.5 1.85,-8.2 7.2,-8.2c4.8,0 6.7,2.1 6.7,7l0,13.5l5.35,0l0,-12.3c0,-5.5 1.9,-8.2 7.2,-8.2c4.8,0 6.75,2.1 6.75,7l0,13.5l5.35,0l0,-14.95c0,-6 -3.25,-10.4 -9.7,-10.4c-6.3,0 -9.1,3.95 -9.75,8.2l-0.3,0c-0.7,-4.75 -3.75,-8.2 -9.4,-8.2c-6.2,0 -8.9,3.85 -9.55,8l-0.3,0l0,-7.5l-4.95,0l0,24.85l5.4,0Z" style="fill:#fff;fill-rule:nonzero;"/><path d="M1220.69,661.918l0,-7.15l0.35,0c1.05,4.95 4.7,7.65 10.35,7.65c7.9,0 12.15,-5.25 12.15,-12.9c0,-7.75 -4.2,-12.95 -11.85,-12.95c-5.95,0 -9.25,3.05 -10.25,7.25l-0.3,0l0,-15.4l-5.4,0l0,33.5l4.95,0Zm0.45,-12.15l0,-0.4c0,-5.3 3.05,-7.9 8.65,-7.9c5.3,0 8.35,2.05 8.35,8.05c0,5.95 -3,7.95 -8.45,7.95c-5.35,0 -8.55,-2.5 -8.55,-7.7Z" style="fill:#fff;fill-rule:nonzero;"/><path d="M1259.79,662.418c7.4,0 12.6,-3.65 12.6,-8.95l0,-0.45l-5.4,0l0,0.4c0,2.95 -2.15,4.65 -7.35,4.65c-5.75,0 -8.1,-2.55 -8.3,-7.35l21.1,0c0.15,-0.75 0.2,-1.45 0.2,-2.35c0,-7.55 -5.25,-11.8 -12.95,-11.8c-8.1,0 -13.4,5.2 -13.4,12.95c0,8.3 5.35,12.9 13.5,12.9Zm-0.2,-21.6c5.3,0 7.95,2.2 7.95,6.8l0,0.1l-16.15,0c0.3,-4.45 2.7,-6.9 8.2,-6.9Z" style="fill:#fff;fill-rule:nonzero;"/><path d="M1282.09,661.918l0,-13.95c0,-4.45 1.75,-6.8 6,-6.8c3.7,0 5.2,1.65 5.2,5.2l0,2.2l5.35,0l0,-3.25c0,-4.7 -2.45,-8.75 -8.1,-8.75c-5.1,0 -7.8,3.2 -8.55,7.2l-0.35,0l0,-6.7l-4.95,0l0,24.85l5.4,0Z" style="fill:#fff;fill-rule:nonzero;"/><path d="M1005.54,737.252l0,-12.3c0,-5.4 2.45,-8.2 7.9,-8.2c5.15,-0 7.25,2.35 7.25,7l0,13.5l5.4,-0l0,-14.95c0,-5.75 -3.4,-10.4 -10.3,-10.4c-6.3,-0 -9.6,4 -10.35,8.2l-0.35,-0l0,-7.7l-4.95,-0l0,24.85l5.4,-0Z" style="fill:#fff;fill-rule:nonzero;"/><path d="M1041.24,737.752c6.4,-0 9.7,-4 10.5,-8.2l0.3,-0l0,7.7l4.95,-0l0,-24.85l-5.35,-0l0,12.3c0,5.4 -2.55,8.2 -8.05,8.2c-5.25,-0 -7.4,-2.35 -7.4,-7l0,-13.5l-5.35,-0l0,14.95c0,5.75 3.4,10.4 10.4,10.4Z" style="fill:#fff;fill-rule:nonzero;"/><path d="M1067.29,737.252l0,-12.3c0,-5.5 1.85,-8.2 7.2,-8.2c4.8,-0 6.7,2.1 6.7,7l0,13.5l5.35,-0l0,-12.3c0,-5.5 1.9,-8.2 7.2,-8.2c4.8,-0 6.75,2.1 6.75,7l0,13.5l5.35,-0l0,-14.95c0,-6 -3.25,-10.4 -9.7,-10.4c-6.3,-0 -9.1,3.95 -9.75,8.2l-0.3,-0c-0.7,-4.75 -3.75,-8.2 -9.4,-8.2c-6.2,-0 -8.9,3.85 -9.55,8l-0.3,-0l0,-7.5l-4.95,-0l0,24.85l5.4,-0Z" style="fill:#fff;fill-rule:nonzero;"/><path d="M1126.34,719.852c5.6,-0 8.6,-3.65 8.6,-8.35c0,-4.6 -3,-8.3 -8.6,-8.3c-5.55,-0 -8.6,3.7 -8.6,8.3c0,4.7 3.05,8.35 8.6,8.35Zm-1.1,17.4l28.45,-33.5l-5.25,-0l-28.45,33.5l5.25,-0Zm1.1,-21.05c-3.35,-0 -4.6,-1.6 -4.6,-4.7c0,-3.05 1.25,-4.65 4.6,-4.65c3.35,-0 4.6,1.6 4.6,4.65c0,3.1 -1.25,4.7 -4.6,4.7Zm20.95,21.55c5.6,-0 8.6,-3.6 8.6,-8.3c0,-4.65 -3,-8.3 -8.6,-8.3c-5.55,-0 -8.6,3.65 -8.6,8.3c0,4.7 3.05,8.3 8.6,8.3Zm0,-3.65c-3.35,-0 -4.6,-1.55 -4.6,-4.65c0,-3.1 1.25,-4.7 4.6,-4.7c3.35,-0 4.6,1.6 4.6,4.7c0,3.1 -1.25,4.65 -4.6,4.65Z" style="fill:#fff;fill-rule:nonzero;"/><path d="M1173.34,709.502l0,-5.75l-5.4,-0l0,5.75l5.4,-0Zm0,27.75l0,-24.85l-5.4,-0l0,24.85l5.4,-0Z" style="fill:#fff;fill-rule:nonzero;"/><path d="M1206.94,717.402l0,-4.5l-20.8,-0l0,4.5l20.8,-0Zm0,10.75l0,-4.5l-20.8,-0l0,4.5l20.8,-0Z" style="fill:#fff;fill-rule:nonzero;"/><path d="M1231.24,717.402l0,-4.5l-20.8,-0l0,4.5l20.8,-0Zm0,10.75l0,-4.5l-20.8,-0l0,4.5l20.8,-0Z" style="fill:#fff;fill-rule:nonzero;"/><path d="M1259.14,737.752c10.1,-0 16.1,-6.6 16.1,-17.25c0,-10.6 -6,-17.25 -16.1,-17.25c-10.1,-0 -16.1,6.65 -16.1,17.25c0,10.65 6,17.25 16.1,17.25Zm0,-5.2c-7.15,-0 -10.4,-3.7 -10.4,-12.05c0,-8.35 3.25,-12.05 10.4,-12.05c7.15,-0 10.35,3.7 10.35,12.05c0,8.35 -3.2,12.05 -10.35,12.05Z" style="fill:#fff;fill-rule:nonzero;"/><path d="M1277.99,702.652c4.1,5.4 6.9,9.5 6.9,17.85c0,8.35 -2.8,12.45 -6.9,17.85l2.7,2.5c4.6,-4.3 10.05,-10.85 10.05,-20.35c0,-9.5 -5.45,-16.05 -10.05,-20.35l-2.7,2.5Z" style="fill:#fff;fill-rule:nonzero;"/><path d="M1012.69,813.085c7.45,-0 12.9,-4.2 12.9,-10.4l0,-0.55l-5.35,-0l0,0.35c0,3.85 -2.8,5.75 -7.65,5.75c-5.6,-0 -8.1,-2.7 -8.1,-8.05c0,-5.45 2.5,-8.1 8.1,-8.1c4.85,-0 7.65,1.9 7.65,5.75l0,0.3l5.35,-0l0,-0.5c0,-6.2 -5.45,-10.4 -12.9,-10.4c-8.2,-0 -13.55,5.2 -13.55,12.95c0,7.65 5.35,12.9 13.55,12.9Z" style="fill:#fff;fill-rule:nonzero;"/><path d="M1042.29,813.085c8.3,-0 13.85,-5.25 13.85,-12.9c0,-7.75 -5.55,-12.95 -13.85,-12.95c-8.25,-0 -13.8,5.2 -13.8,12.95c0,7.65 5.55,12.9 13.8,12.9Zm0,-4.8c-6,-0 -8.5,-2.85 -8.5,-8.1c0,-5.3 2.5,-8.2 8.5,-8.2c6.05,-0 8.55,2.9 8.55,8.2c0,5.25 -2.5,8.1 -8.55,8.1Z" style="fill:#fff;fill-rule:nonzero;"/><path d="M1065.44,812.585l0,-12.3c0,-5.4 2.45,-8.2 7.9,-8.2c5.15,-0 7.25,2.35 7.25,7l0,13.5l5.4,-0l0,-14.95c0,-5.75 -3.4,-10.4 -10.3,-10.4c-6.3,-0 -9.6,4 -10.35,8.2l-0.35,-0l0,-7.7l-4.95,-0l0,24.85l5.4,-0Z" style="fill:#fff;fill-rule:nonzero;"/><path d="M1102.54,813.085c7,-0 11.6,-2.75 11.6,-7.4c0,-4.1 -2.7,-6.1 -8.6,-6.85l-5.75,-0.8c-3.75,-0.5 -4.75,-1.2 -4.75,-3.15c0,-2.35 1.6,-3.35 6.15,-3.35c5.5,-0 7,1.55 7,4.5l0,0.3l5.35,-0l0,-0.15c0,-5.9 -4.6,-8.95 -12.2,-8.95c-7.65,-0 -11.6,3.1 -11.6,7.45c0,4.15 2.85,6.15 7.55,6.75l6.8,0.9c3.55,0.5 4.75,1.15 4.75,3.2c0,2.2 -1.45,3.2 -6.3,3.2c-5.2,-0 -7.15,-1.05 -7.15,-4.3l0,-0.4l-5.4,-0l0,0.15c0,5.75 4.55,8.9 12.55,8.9Z" style="fill:#fff;fill-rule:nonzero;"/><path d="M1130.74,813.085c8.3,-0 13.85,-5.25 13.85,-12.9c0,-7.75 -5.55,-12.95 -13.85,-12.95c-8.25,-0 -13.8,5.2 -13.8,12.95c0,7.65 5.55,12.9 13.8,12.9Zm0,-4.8c-6,-0 -8.5,-2.85 -8.5,-8.1c0,-5.3 2.5,-8.2 8.5,-8.2c6.05,-0 8.55,2.9 8.55,8.2c0,5.25 -2.5,8.1 -8.55,8.1Z" style="fill:#fff;fill-rule:nonzero;"/><rect x="1148.49" y="779.085" width="5.4" height="33.5" style="fill:#fff;fill-rule:nonzero;"/><path d="M1171.39,813.085c7.4,-0 12.6,-3.65 12.6,-8.95l0,-0.45l-5.4,-0l0,0.4c0,2.95 -2.15,4.65 -7.35,4.65c-5.75,-0 -8.1,-2.55 -8.3,-7.35l21.1,-0c0.15,-0.75 0.2,-1.45 0.2,-2.35c0,-7.55 -5.25,-11.8 -12.95,-11.8c-8.1,-0 -13.4,5.2 -13.4,12.95c0,8.3 5.35,12.9 13.5,12.9Zm-0.2,-21.6c5.3,-0 7.95,2.2 7.95,6.8l0,0.1l-16.15,-0c0.3,-4.45 2.7,-6.9 8.2,-6.9Z" style="fill:#fff;fill-rule:nonzero;"/><rect x="1187.29" y="804.835" width="6.8" height="7.75" style="fill:#fff;fill-rule:nonzero;"/><rect x="1198.09" y="779.085" width="5.4" height="33.5" style="fill:#fff;fill-rule:nonzero;"/><path d="M1221.19,813.085c8.3,-0 13.85,-5.25 13.85,-12.9c0,-7.75 -5.55,-12.95 -13.85,-12.95c-8.25,-0 -13.8,5.2 -13.8,12.95c0,7.65 5.55,12.9 13.8,12.9Zm0,-4.8c-6,-0 -8.5,-2.85 -8.5,-8.1c0,-5.3 2.5,-8.2 8.5,-8.2c6.05,-0 8.55,2.9 8.55,8.2c0,5.25 -2.5,8.1 -8.55,8.1Z" style="fill:#fff;fill-rule:nonzero;"/><path d="M1249.74,810.335c5.65,-0 9,-2.7 9.9,-6.45l0.35,-0l0,6.1c0,5.55 -2.05,7.1 -7.7,7.1c-5.3,-0 -7.4,-1.35 -7.4,-4.95l-5.35,-0c0,6 5.1,9.45 12.45,9.45c8.15,-0 13.35,-3.55 13.35,-11.9l0,-21.95l-4.95,-0l0,6.2l-0.3,-0c-0.9,-4.35 -4.8,-6.7 -10,-6.7c-7.55,-0 -12.15,4.65 -12.15,11.55c0,6.9 4.4,11.55 11.8,11.55Zm-6.35,-11.55c0,-5.1 3.05,-6.85 8.25,-6.85c5.25,-0 8.35,2.15 8.35,6.35l0,0.7c0,4.4 -3,6.7 -8.5,6.7c-5.1,-0 -8.1,-1.8 -8.1,-6.9Z" style="fill:#fff;fill-rule:nonzero;"/><path d="M1282.39,813.685c-4.15,-5.4 -6.9,-9.5 -6.9,-17.85c0,-8.35 2.75,-12.45 6.9,-17.85l-2.75,-2.5c-4.55,4.3 -10.05,10.85 -10.05,20.35c0,9.5 5.5,16.05 10.05,20.35l2.75,-2.5Z" style="fill:#fff;fill-rule:nonzero;"/><path d="M1290.79,784.835l0,-5.75l-5.4,-0l0,5.75l5.4,-0Zm0,27.75l0,-24.85l-5.4,-0l0,24.85l5.4,-0Z" style="fill:#fff;fill-rule:nonzero;"/><path d="M1294.54,777.985c4.1,5.4 6.9,9.5 6.9,17.85c0,8.35 -2.8,12.45 -6.9,17.85l2.7,2.5c4.6,-4.3 10.05,-10.85 10.05,-20.35c0,-9.5 -5.45,-16.05 -10.05,-20.35l-2.7,2.5Z" style="fill:#fff;fill-rule:nonzero;"/></g></g></g><g><path d="M364.102,1013.76c-2.625,3.239 -39.302,-32.759 -98.385,-32.759c-46.7,0 -88.152,35.446 -84.933,79.925c3.318,45.413 65.323,67.356 155.902,109.431c-29.715,19.638 -41.7,28.082 -58.736,40.6c36.796,38.884 45.165,89.157 76.267,113.017c29.765,-16.839 129.504,-54.644 160.654,-77.079c49.327,23.86 86.965,40.504 146.444,79.827c31.1,-28.081 57.298,-92.296 79.981,-110.51c-19.116,-8.838 -38.233,-18.95 -59.479,-29.015c58.042,-11.194 152.831,-60.287 164.171,-106.583c17.731,-72.611 -58.042,-115.077 -108.952,-99.613c-23.127,6.971 -70.769,30.831 -89.192,43.448c-5.646,-15.417 -3.171,-38.735 -7.429,-54.152c-68.938,4.813 -212.506,-0.687 -265.498,-0.687c-1.435,49.095 -6.754,39.043 -10.815,44.15" style="fill-rule:nonzero;stroke:#000;stroke-width:4.17px;"/><path d="M364.102,1013.76c-2.625,3.239 -39.302,-32.759 -98.385,-32.759c-46.7,0 -88.152,35.446 -84.933,79.925c3.318,45.413 65.323,67.356 155.902,109.431c-29.715,19.638 -41.7,28.082 -58.736,40.6c36.796,38.884 45.165,89.157 76.267,113.017c29.765,-16.839 129.504,-54.644 160.654,-77.079c49.327,23.86 86.965,40.504 146.444,79.827c31.1,-28.081 57.298,-92.296 79.981,-110.51c-19.116,-8.838 -38.233,-18.95 -59.479,-29.015c58.042,-11.194 152.831,-60.287 164.171,-106.583c17.731,-72.611 -58.042,-115.077 -108.952,-99.613c-23.127,6.971 -70.769,30.831 -89.192,43.448c-5.646,-15.417 -3.171,-38.735 -7.429,-54.152c-68.938,4.813 -212.506,-0.687 -265.498,-0.687c-1.435,49.095 -6.754,39.043 -10.815,44.15Z" style="fill:none;fill-rule:nonzero;stroke:#000;stroke-width:4.17px;stroke-linejoin:miter;stroke-miterlimit:10;"/><path d="M730.994,1211.5c-11.439,21.454 -62.993,81.496 -75.325,112.475c28.327,13.844 101.821,70.844 113.607,57.932c12.975,-14.188 51.356,-89.155 70.82,-122.048c5.744,-9.721 15.648,-24.498 -0.445,-27.788c-15.948,-3.239 -13.421,2.504 -43.632,5.596c-21.691,2.21 -42.095,-18.606 -65.025,-26.167Z" style="fill:#fff;fill-rule:nonzero;stroke:#000;stroke-width:4.17px;stroke-linejoin:miter;stroke-miterlimit:10;"/><path d="M218.373,1234.13c-30.211,-3.094 -27.683,-8.838 -43.631,-5.596c-16.046,3.287 -6.19,18.067 -0.446,27.787c19.464,32.892 57.844,107.859 70.821,122.048c11.835,12.911 85.329,-44.087 113.606,-57.931c-12.331,-30.979 -63.886,-91.021 -75.325,-112.475c-22.929,7.561 -43.333,28.375 -65.025,26.167" style="fill:#fff;fill-rule:nonzero;stroke:#000;stroke-width:4.17px;"/><path d="M218.373,1234.13c-30.211,-3.094 -27.683,-8.838 -43.631,-5.596c-16.046,3.287 -6.19,18.067 -0.446,27.787c19.464,32.892 57.844,107.859 70.821,122.048c11.835,12.911 85.329,-44.087 113.606,-57.931c-12.331,-30.979 -63.886,-91.021 -75.325,-112.475c-22.929,7.561 -43.333,28.375 -65.025,26.167Z" style="fill:none;fill-rule:nonzero;stroke:#000;stroke-width:4.17px;stroke-linejoin:miter;stroke-miterlimit:10;"/><path d="M544.219,599.965c0,0 -8.792,-10.267 -23.148,-12.6c-18.848,-3.066 -39.91,4.776 -53.717,20.754c-21.057,24.369 -10.466,44.165 -24.696,87.158c-13.939,42.112 -35.836,77.478 -35.836,77.478c-0,-0 61.339,21.579 80.952,21.373c38.646,-0.403 78.919,-19.357 78.919,-19.357c-0,0 -16.037,-17.53 -11.021,-57.524c2.915,-23.239 30.946,-93.413 11.293,-110.371c-10.745,-9.273 -22.746,-6.911 -22.746,-6.911Z" style="fill:#fff;fill-rule:nonzero;stroke:#000;stroke-width:4.17px;stroke-linejoin:miter;stroke-miterlimit:10;"/><path d="M470.149,719.123c-3.602,20.856 -11.662,30.83 -13.742,36.23c4.805,22.435 45.885,40.32 54.95,2.666c-4.459,-12.667 -6.873,-20.258 -2.141,-37.969c3.969,-14.852 11.156,-6.675 24.257,-14.779c15.027,-9.292 19.642,-24.265 20.385,-45.378c1.051,-30.147 4.622,-34.704 -10.89,-43.315c-29.339,19.032 -45.333,10.265 -47.404,18.664c-1.096,4.442 -3.395,15.651 -4.325,14.073c-7.029,-11.942 -13.33,-3.477 -13.693,1.508c-0.271,3.73 1.285,16.873 8.992,13.179c4.255,-2.038 -9.691,16.357 -16.389,55.121Z" style="fill:#fff;fill-rule:nonzero;stroke:#000;stroke-width:4.17px;stroke-linejoin:miter;stroke-miterlimit:10;"/><path d="M485.077,656.072c-0,-0 -1.712,-2.028 0.701,-3.755" style="fill:none;fill-rule:nonzero;stroke:#000;stroke-width:4.17px;stroke-linecap:round;stroke-linejoin:miter;stroke-miterlimit:10;"/><path d="M534.759,683.122c-0.853,3.459 -11.405,6.502 -16.3,-5.486" style="fill:none;fill-rule:nonzero;stroke:#000;stroke-width:4.17px;stroke-linecap:round;stroke-linejoin:miter;stroke-miterlimit:10;"/><path d="M533.999,666.169c1.647,1.252 4.57,1.316 5.946,0.186c3.955,-3.207 -5.537,-4.439 -4.082,-16.245" style="fill:none;fill-rule:nonzero;stroke:#000;stroke-width:4.17px;stroke-linecap:round;stroke-linejoin:miter;stroke-miterlimit:10;"/><path d="M543.991,649.274c-1.665,-0.121 -3.148,1.085 -3.268,2.735c-0.12,1.65 1.168,3.126 2.832,3.247c1.665,0.121 3.082,-1.158 3.202,-2.808c0.12,-1.65 -1.102,-3.053 -2.766,-3.174m-0,0c-1.665,-0.121 -3.148,1.085 -3.268,2.735c-0.12,1.65 1.168,3.126 2.832,3.247c1.665,0.121 3.082,-1.158 3.202,-2.808c0.12,-1.65 -1.102,-3.053 -2.766,-3.174" style="fill-rule:nonzero;"/><path d="M525.75,647.28c-1.664,-0.121 -3.148,1.085 -3.268,2.735c-0.12,1.649 1.168,3.126 2.833,3.247c1.664,0.121 3.081,-1.159 3.201,-2.808c0.12,-1.65 -1.102,-3.053 -2.766,-3.174m-0,-0c-1.664,-0.121 -3.148,1.085 -3.268,2.735c-0.12,1.649 1.168,3.126 2.833,3.247c1.664,0.121 3.081,-1.159 3.201,-2.808c0.12,-1.65 -1.102,-3.053 -2.766,-3.174" style="fill-rule:nonzero;"/><path d="M520.442,637.805c3.09,-1.193 6.158,-2.104 10.083,-1.131" style="fill:none;fill-rule:nonzero;stroke:#000;stroke-width:4.17px;stroke-linecap:round;stroke-linejoin:miter;stroke-miterlimit:10;"/><path d="M548.769,641.568c-1.888,-1.556 -5.058,-3.203 -8.351,-3.161" style="fill:none;fill-rule:nonzero;stroke:#000;stroke-width:4.17px;stroke-linecap:round;stroke-linejoin:miter;stroke-miterlimit:10;"/><path d="M459.304,753.845c-46.879,-3.681 -68.823,-0.829 -91.101,9.245c-28.468,12.874 -47.544,37.939 -57.476,88.013c16.071,2.945 60.259,18.052 77.522,20.852c2.94,16.052 -14.825,81.721 -15.329,93.161c67.539,10.26 179.89,14.187 251.38,2.994c-1.561,-5.744 -19.454,-84.702 -20.327,-96.337c25.438,4.223 43.952,-6.756 65.487,-9.062c-9.904,-35.665 -26.69,-62.786 -48.002,-88.243c-19.835,-23.693 -56.504,-35.744 -110.271,-22.733c6.429,15.218 -37.283,41.139 -51.883,2.11Z" style="fill:#fff;fill-rule:nonzero;stroke:#000;stroke-width:4.17px;stroke-linejoin:miter;stroke-miterlimit:10;"/><path d="M594.596,836.466c4.117,10.883 4.166,25.97 9.543,35.873" style="fill:none;stroke:#000;stroke-width:4.17px;stroke-linecap:round;stroke-miterlimit:1.5;"/><path d="M398.364,842.075c-1.893,11.481 -9.412,24.561 -9.723,35.825" style="fill:none;stroke:#000;stroke-width:4.17px;stroke-linecap:round;stroke-miterlimit:1.5;"/><path d="M311.002,850.757c32.245,3.068 52.244,12.665 77.412,21.418c-1.476,20.612 0.138,46.051 6.462,66.313c7.235,23.181 101.951,35.775 129.195,44.375c13.585,4.293 43.171,-17.233 56.588,-10.992c8.501,3.965 -9.148,9.57 -13.025,21.22c-2.753,8.283 43.757,-2.17 43.338,5.13c-0.697,12.336 -43.002,13.331 -42.837,16.17c0.192,3.296 51.247,2.759 50.474,11.499c-0.854,9.63 -48.469,1.424 -51.715,5.405c-2.605,3.201 42.234,9.81 39.624,16.375c-3.67,9.222 -42.539,-2.77 -44.474,-1.485c-2.156,1.44 27.877,12.565 24.163,17.345c-3.98,5.12 -48.111,-6.919 -64.241,-22.769c-18.575,-18.252 -139.683,-8.843 -182.414,-44.079c-45.654,-37.647 -28.55,-145.925 -28.55,-145.925Z" style="fill:#fff;fill-rule:nonzero;stroke:#000;stroke-width:4.17px;stroke-linejoin:miter;stroke-miterlimit:10;"/><g><path d="M920.034,889.908c2.234,-14.049 -7.358,-25.454 -21.407,-25.454l-268.766,-0c-14.048,-0 -27.267,11.405 -29.501,25.454l-25.635,161.208c-2.233,14.048 7.358,25.454 21.407,25.454l268.766,-0c14.048,-0 27.267,-11.406 29.501,-25.454l25.635,-161.208Z" style="fill:#fff;stroke:#000;stroke-width:4.17px;"/><g><clipPath id="_clip2"><path d="M920.034,889.908c2.234,-14.049 -7.358,-25.454 -21.407,-25.454l-268.766,-0c-14.048,-0 -27.267,11.405 -29.501,25.454l-25.635,161.208c-2.233,14.048 7.358,25.454 21.407,25.454l268.766,-0c14.048,-0 27.267,-11.406 29.501,-25.454l25.635,-161.208Z"/></clipPath><g clip-path="url(#_clip2)"><path d="M772.224,929.858c20.667,0 34.777,16.779 31.49,37.446c-3.286,20.667 -22.732,37.447 -43.399,37.447c-20.667,-0 -34.778,-16.78 -31.492,-37.447c3.287,-20.667 22.734,-37.446 43.401,-37.446Z" style="fill:#fff;stroke:#1d252e;stroke-width:4.17px;stroke-linecap:round;stroke-miterlimit:1.5;"/><path d="M615.683,884.61l-25.454,160.074" style="fill:none;stroke:#1d252e;stroke-width:4.17px;stroke-linecap:round;stroke-miterlimit:1.5;"/></g></g><path d="M920.034,889.908c2.234,-14.049 -7.358,-25.454 -21.407,-25.454l-268.766,-0c-14.048,-0 -27.267,11.405 -29.501,25.454l-25.635,161.208c-2.233,14.048 7.358,25.454 21.407,25.454l268.766,-0c14.048,-0 27.267,-11.406 29.501,-25.454l25.635,-161.208Z" style="fill:none;stroke:#1d252e;stroke-width:4.17px;stroke-linecap:round;stroke-miterlimit:1.5;"/><path d="M891.083,1067.69l-386.713,-0c-13.765,-0 -13.765,20.657 -0,20.657l386.713,0l-0,-20.657Z" style="fill:#fff;stroke:#1d252e;stroke-width:4.17px;stroke-linecap:round;stroke-miterlimit:1.5;"/></g></g></g></g></svg>