<svg id="Layer_1" data-name="Layer 1" xmlns="http://www.w3.org/2000/svg" viewBox="0 0 1200 1200"><defs><style>.cls-1{fill:#e9e8e8;}.cls-2,.cls-5{fill:#fff;}.cls-3,.cls-9{fill:none;}.cls-3,.cls-5,.cls-9{stroke:#1d252e;stroke-linecap:round;}.cls-3,.cls-5{stroke-width:4px;}.cls-4{fill:#9dd5c0;}.cls-6{fill:#0a665d;}.cls-7{fill:#5b5b5b;}.cls-8{fill:#1d252e;}.cls-9{stroke-width:4.09px;}.cls-10{fill:#8f3b0c;}</style></defs><path id="Path-141" class="cls-1" d="M441.86,467.29c110.69-74.84,365-274.08,498.13-158.15s60.26,672.6-332,612.66c-147.36-22.52-370-34.95-401.22-104C154.88,702.94,372.75,514,441.86,467.29Z"/><rect class="cls-2" x="541.41" y="887.19" width="15.55" height="64.96"/><polyline class="cls-3" points="541.41 894.84 541.41 952.14 556.96 952.14 556.96 896.29"/><rect class="cls-2" x="268.18" y="887.19" width="15.55" height="64.96"/><polyline class="cls-3" points="268.18 894.84 268.18 952.14 283.73 952.14 283.73 896.29"/><path class="cls-4" d="M543,301V356.7H282.85V301H267.29V889.44l291.26.27V301Zm0,573.27H282.85V726.36H543ZM543,711H282.85V589H543Zm0-137.41H282.85V476.33H543ZM543,461H282.85V372.05H543Z"/><rect class="cls-5" x="418.08" y="494.68" width="21.89" height="80.83"/><rect class="cls-5" x="504.5" y="494.68" width="21.89" height="80.83"/><rect class="cls-5" x="454.19" y="494.68" width="21.89" height="80.83"/><rect class="cls-5" x="476.07" y="494.68" width="14.21" height="80.83"/><rect class="cls-5" x="526.39" y="494.68" width="14.21" height="80.83"/><rect class="cls-5" x="490.29" y="521.91" width="14.21" height="53.6"/><rect class="cls-5" x="439.97" y="521.91" width="14.21" height="53.6"/><rect class="cls-5" x="284.83" y="378.67" width="21.89" height="80.83"/><rect class="cls-5" x="306.72" y="378.67" width="21.89" height="80.83"/><rect class="cls-5" x="342.82" y="405.9" width="14.21" height="53.6"/><rect class="cls-5" x="328.61" y="378.67" width="14.21" height="80.83"/><path class="cls-5" d="M284.37,758.7V873.2h37.17V758.7Z"/><rect class="cls-6" x="325.37" y="762.53" width="39.85" height="106.84"/><path class="cls-5" d="M321.54,758.7V873.2H369V758.7Z"/><path class="cls-4" d="M291.8,766.82v14.89h22V766.82Z"/><rect class="cls-4" x="329.76" y="845.35" width="31.05" height="21.75"/><path class="cls-7" d="M526.56,842.86h.09l-.47,0h0Z"/><path class="cls-7" d="M527.24,842.92l.08,0-.33-.05h0Z"/><path class="cls-7" d="M527.89,843l.08,0a2,2,0,0,0-.23-.06h0Z"/><path class="cls-7" d="M528.51,843.22l.1,0-.16,0h0Z"/><path class="cls-7" d="M533.56,849.51a6.34,6.34,0,0,1,0,.76A6.34,6.34,0,0,0,533.56,849.51Z"/><path class="cls-7" d="M533.53,849.27c0-.17,0-.33-.08-.49C533.48,848.94,533.5,849.1,533.53,849.27Z"/><path class="cls-7" d="M533.37,848.48c0-.14-.06-.28-.1-.41C533.31,848.2,533.34,848.34,533.37,848.48Z"/><path class="cls-7" d="M533.14,847.71c0-.1-.07-.21-.12-.32C533.07,847.5,533.1,847.61,533.14,847.71Z"/><path class="cls-7" d="M532.83,847c0-.08-.07-.16-.12-.24C532.76,846.83,532.79,846.91,532.83,847Z"/><path class="cls-7" d="M532.45,846.32a1.62,1.62,0,0,0-.1-.18A1.62,1.62,0,0,1,532.45,846.32Z"/><path class="cls-7" d="M532,845.69a1,1,0,0,0-.08-.11A1,1,0,0,1,532,845.69Z"/><path class="cls-7" d="M531.52,845.12l-.06-.07Z"/><path class="cls-7" d="M531,844.62l0,0Z"/><path class="cls-7" d="M530.42,844.18l0,0Z"/><path class="cls-7" d="M529.84,843.81l-.07,0Z"/><path class="cls-7" d="M529.23,843.5l-.1,0Z"/><polygon class="cls-5" points="519.5 663.83 504.61 663.83 521.98 709.51 536.87 709.51 519.5 663.83"/><rect class="cls-5" x="447.89" y="633.31" width="76.2" height="76.2"/><rect class="cls-4" x="459.71" y="645.13" width="52.57" height="52.57"/><polygon class="cls-5" points="424.1 670.21 409.34 670.21 426.62 709.53 441.39 709.53 424.1 670.21"/><rect class="cls-5" x="377.59" y="632.51" width="51.42" height="77.02"/><rect class="cls-4" x="388.75" y="644.44" width="29.11" height="53.16"/><path class="cls-4" d="M536.61,845a11.36,11.36,0,0,0-10-7l3.06-36.38h-9.06L514.9,838H460.77l-5.71-36.37H446L449.07,838a11.36,11.36,0,0,0-9.8,11.17v24h98.16C537.17,870,538.17,847.44,536.61,845Z"/><line class="cls-3" x1="439.27" y1="873.2" x2="537.43" y2="873.2"/><polygon class="cls-8" points="511.37 846.19 511.37 856.43 448.88 856.43 448.88 851.31 455.57 851.31 455.57 846.19 511.37 846.19"/><polygon class="cls-8" points="529.54 846.19 529.54 856.43 517.96 856.43 517.96 851.31 524.04 851.31 524.04 846.19 529.54 846.19"/><circle class="cls-4" cx="697.37" cy="313.26" r="65.41" transform="translate(-64.82 253.9) rotate(-19.74)"/><circle class="cls-9" cx="697.37" cy="313.26" r="58.57" transform="translate(-64.82 253.9) rotate(-19.74)"/><polygon class="cls-8" points="726.35 315.23 695.4 315.23 695.4 265.52 699.33 265.52 699.33 311.3 726.35 311.3 726.35 315.23"/><rect class="cls-8" x="1001.68" y="414.84" width="12.21" height="525.92"/><path class="cls-10" d="M1040.81,474.1v1.71h-3.06v-1.73a3.25,3.25,0,0,1,1.51-.38A3.14,3.14,0,0,1,1040.81,474.1Z"/><path class="cls-8" d="M1042.43,476.86a3.17,3.17,0,1,1-4.68-2.78,3.25,3.25,0,0,1,1.51-.38,3.14,3.14,0,0,1,1.55.4A3.18,3.18,0,0,1,1042.43,476.86Z"/><path class="cls-4" d="M1040.81,470.84V431.46h-3.06v39.38a6.2,6.2,0,1,0,3.06,0Zm-1.55,9.18a3.16,3.16,0,0,1-1.51-5.94,3.25,3.25,0,0,1,1.51-.38,3.14,3.14,0,0,1,1.55.4,3.16,3.16,0,0,1-1.55,5.92Z"/><path class="cls-5" d="M994.33,917.49a8.74,8.74,0,0,0-8.72,8.73v7.38H951.15a7.55,7.55,0,0,0-7.54,7.55v6.76H1072v-6.76a7.56,7.56,0,0,0-7.55-7.55H1030v-7.38a8.74,8.74,0,0,0-8.72-8.73"/><path class="cls-4" d="M1079.45,431.69c-6.07-23.25-25.1-94.84-34.91-119.41h0c-1.08-2.44-3.29-8.41-5.62-8.14H975.19c-3.06.45-4.1,5.22-5.62,8.14h0c-10.19,29.12-32.86,103.14-34.77,124,1.75,11.72,29.7,10.26,39.62,12.49a338.26,338.26,0,0,0,94.41-4.21A11,11,0,0,0,1079.45,431.69Z"/><path class="cls-4" d="M946.11,599.87a7.37,7.37,0,0,0-5.32-2.26H756c-12.57,0-24.43,8.73-28.86,21.24L682.38,722.37l0,.11a54.51,54.51,0,0,1-27.66,30.36l-31.86,15.24c-18.93,9-32.73,27-36,47l-1.61,9.64-.07.39v0a0,0,0,0,0,0,0,1.06,1.06,0,0,0,0,.25v33.9a21.08,21.08,0,0,0,12.66,19.31,19.83,19.83,0,0,0,3.84,1.25,20.82,20.82,0,0,0,4.56.5H904.37a21.09,21.09,0,0,0,3.92-.36,21.68,21.68,0,0,0,3.85-1.06,22,22,0,0,0,14.23-20.57s19.06-173.76,21.81-253.13A7.32,7.32,0,0,0,946.11,599.87Z"/><path class="cls-2" d="M597,950.92a8.8,8.8,0,0,1-1.53-.14,8.46,8.46,0,0,1-6.81-9.84l9.22-50.66a8.47,8.47,0,0,1,16.66,3L605.29,944A8.45,8.45,0,0,1,597,950.92Z"/><path class="cls-2" d="M731.31,950.92a8.8,8.8,0,0,1-1.53-.14,8.46,8.46,0,0,1-6.81-9.84l9.23-50.66a8.46,8.46,0,0,1,16.65,3L739.62,944A8.45,8.45,0,0,1,731.31,950.92Z"/><path class="cls-2" d="M912.75,950.92a8.47,8.47,0,0,1-8.32-6.95l-9.22-50.66a8.46,8.46,0,1,1,16.65-3l9.23,50.66a8.46,8.46,0,0,1-6.81,9.84A8.89,8.89,0,0,1,912.75,950.92Z"/><path class="cls-2" d="M780.45,950.92a8.45,8.45,0,0,1-8.31-6.95l-9.23-50.66a8.47,8.47,0,0,1,16.66-3l9.22,50.66a8.46,8.46,0,0,1-6.81,9.84A8.8,8.8,0,0,1,780.45,950.92Z"/><polygon class="cls-8" points="916.67 891.8 916.67 875.4 593.21 875.4 593.34 891.8 916.67 891.8"/><path class="cls-3" d="M613.82,897.14,605.29,944a8.45,8.45,0,0,1-8.31,6.95,8.8,8.8,0,0,1-1.53-.14,8.46,8.46,0,0,1-6.81-9.84l8-43.8"/><path class="cls-3" d="M748,898.13,739.62,944a8.45,8.45,0,0,1-8.31,6.95,8.8,8.8,0,0,1-1.53-.14,8.46,8.46,0,0,1-6.81-9.84l8-43.8"/><path class="cls-3" d="M912.76,895.19l8.33,45.75a8.46,8.46,0,0,1-6.81,9.84,8.89,8.89,0,0,1-1.53.14,8.47,8.47,0,0,1-8.32-6.95l-8.35-45.84"/><path class="cls-3" d="M781,898.21l7.78,42.73a8.46,8.46,0,0,1-6.81,9.84,8.8,8.8,0,0,1-1.53.14,8.45,8.45,0,0,1-8.31-6.95l-8.35-45.84"/><path class="cls-3" d="M929.91,607.82c-9,48.95-37.92,168.92-53.09,171s-101.36-4.13-102,34.48,0,44.81,0,44.81"/><path class="cls-3" d="M761.58,607.82c-9,48.95-37.93,168.92-53.09,171s-101.36-4.13-102,34.48,0,44.81,0,44.81"/><path class="cls-8" d="M593.21,875.4c1-55.91,178.53-36,183.15-21.14s3.93,25.91,3.93,25.91Z"/><path class="cls-4" d="M218.43,769.42c-10.74,8.26-23.09,22.17-31.07,37.45,6.89-32.63,8.86-65.66,16.52-98.09,1.91-7.73,15.37-44.2,15.63-44.95-36.32,8.11-46.25,93.88-50.15,125.48-4.61-30.44-22.28-56-49-71.6,3.66,7.8,21.37,41.35,36.26,97.25-17.1-29.17-27.41-30.08-27.41-30.08S144,826.55,144,826.6c2.93,8.2,13.85,23.26,13.85,23.26h28.5c10-29.62,33.7-78.26,37.2-84.39Z"/><path class="cls-8" d="M139,842.32l7.54,105.18a4.11,4.11,0,0,0,4.08,3.81h45.93a4.13,4.13,0,0,0,4.09-3.81l7.53-105.18Z"/><path class="cls-3" d="M150.6,764.57c12.76,15.51,16.53,45.8,21.36,71.18,3.13-42.72,11.59-86.13,17.5-100.46"/></svg>