<svg id="Layer_1" data-name="Layer 1" xmlns="http://www.w3.org/2000/svg" viewBox="0 0 1200 1200"><defs><style>.cls-1{fill:#e9e8e8;}.cls-2{fill:#fff;}.cls-3,.cls-5,.cls-7{fill:none;}.cls-3,.cls-5{stroke:#1d252e;stroke-linecap:round;stroke-width:4px;}.cls-3{stroke-linejoin:round;}.cls-4{fill:#9dd5c0;}.cls-6{fill:#1d252e;}</style></defs><path id="Oval" class="cls-1" d="M600,914.5c165.41,0,299.5-210.66,299.5-359.5S765.41,285.5,600,285.5,300.5,406.16,300.5,555,434.59,914.5,600,914.5Z"/><path class="cls-2" d="M353.07,450.3c10.11,5.17,35.08,14.81,35.08,14.81l96.15,8.43c30.13.49,48.8-27.6,43.91-33.69s-36.91,7.18-45,12.28c0,0-42-7.57-80.86-19.46L385.32,424Z"/><path class="cls-3" d="M353.07,450.3c10.11,5.17,35.08,14.81,35.08,14.81l96.15,8.43c30.13.49,48.8-27.6,43.91-33.69s-36.91,7.18-45,12.28c0,0-42-7.57-80.86-19.46"/><path id="Path-24" class="cls-4" d="M333.54,368.41c15,7,46.16,26.85,65.31,58.15-7.38,12.37-25.24,27.2-50.71,45.31l-55.71-59.22Z"/><path id="Path-33" class="cls-2" d="M325.76,887.2c1.46,22.23,1.16,39.53.67,45.38a160.33,160.33,0,0,0,0,21.57h77.68a2.26,2.26,0,0,0,1.36-4.06q-50.61-38.21-50.61-43.51l.07-17.74Z"/><path id="Path-32" class="cls-2" d="M224.27,892.13c0,7.92-.49,17-.49,19.34,0,3.45-4.49,37.85-1.42,38.72s90.41,8.47,79.54,0-45.23-33-45.23-39.92l.47-18.14Z"/><path id="Path-32-2" data-name="Path-32" class="cls-3" d="M223.78,896.13v15.34c0,3.45-4.49,37.85-1.42,38.72s90.41,8.47,79.54,0-45.23-33-45.23-39.92l.47-5.4"/><path id="Path-108" class="cls-2" d="M815.26,428.05l-24.71,48.17-42.13-27.55L735.76,437.2l-16.56-2.72s-5.63-4.91-11.37,1.77,17.28,23.86,17.28,23.86l9.59,1.8L792,510l12.44,6.9,8.21-2.55,35.29-63.49C834.49,444.5,824,429.9,815.26,428.05Z"/><path id="Path-108-2" data-name="Path-108" class="cls-5" d="M836.51,471.06l-23.89,43.28-8.21,2.55L792,510,734.7,461.91l-9.59-1.8s-23-17.18-17.28-23.86,33.25,1.67,40.59,12.42l42.13,27.55,20.56-40.91"/><path id="Path-31" class="cls-6" d="M220.51,556.63,214,894.28q27.25,4.82,40.69,4.81t19.17-4.81L280,622.71a54.35,54.35,0,0,0,10.54-.55A60.42,60.42,0,0,0,301,619l18.22,270.34q21.19,3.36,31.7,3.37a97.91,97.91,0,0,0,23.77-3.37l-28.6-332.7Z"/><path id="Path-33-2" data-name="Path-33" class="cls-3" d="M325,890.45q2.19,33.36,1.46,42.13a160.33,160.33,0,0,0,0,21.57h77.68a2.26,2.26,0,0,0,1.36-4.06q-50.61-38.21-50.61-43.51l.48-7.46"/><path id="Path-109" class="cls-2" d="M874.56,944.54h-4.3s-64.74,1.39-65.32-.66,50.54-36.19,50.54-36.19l-16-196.4,40.17-4.52,12.31,225Z"/><path id="Path-109-Copy" class="cls-2" d="M910.26,700.76q7.57,83.57,12.6,125.77c3.35,28.14,11.94,57.09,10.84,76,0,0-55.7,38.93-54.82,41.34s76.47,4.32,81.32-2.61c10.49-10.39-11.33-245.11-9.77-245.06Z"/><path id="Path-102" class="cls-6" d="M870.26,318.62q-3.53-12.8,1.45-20c5-7.24,17-16.59,34.5-14.22s31,18,34.61,35.23q3.61,17.22-3.45,36.79-4.67,6.35-9.77,6.35c-5.1,0-15.44-2.63-18.88-6.35Q905.28,352.66,870.26,318.62Z"/><polygon id="Path-103" class="cls-2" points="872.5 318.62 867.78 331.24 869.31 345.94 876.67 356.6 884.7 361.58 884.7 376.65 884.2 386.69 869.31 385.51 869.31 401.3 908.45 416.54 926.25 400.3 921.7 394.51 908.45 390.09 907.37 361.58 914.97 351.6 918.54 342.08 924.99 341.37 926.96 331.24 922.38 326.09 913.88 324.27 908.45 314.94 909.57 307.12 886.56 318.62 872.5 318.62"/><path id="Path-89" class="cls-6" d="M842,563.74q-15.74,76.39-19.78,107.8t-4.12,38.88q95.42,8.94,118.13,5.36t38.12-13.6q-18.25-110.89-30.57-138.44T842,563.74Z"/><path id="Path-86" class="cls-5" d="M872.5,318.62a34.38,34.38,0,0,0-3.92,24.74q2.71,13,17,18.17l-1.36,25.16a47.49,47.49,0,0,0-9.69-1.39"/><path id="Path-87" class="cls-5" d="M873,317.71q3.18,2.24,12.6,0t24-10.59a15.42,15.42,0,0,0,0,10.59,14.68,14.68,0,0,0,6.22,7.91q8-2.06,10.23,4.19c2.22,6.25.1,11.4-2,12.27a8.74,8.74,0,0,1-5.48,0q.12,4.8-4.42,11t-6.73,6.77v30.18l13.38,4.45"/><path id="Path-88" class="cls-4" d="M869,386.69q.59,9.71,11.78,16.8t43.36-5.78q23,3.94,37.21,12.71t44.24,36.06q-8.7,11.24-16.29,19.74a91.29,91.29,0,0,0-12.85,18.59s-30.53-21.33-39.1-34.18c-2-.29,8,113.52,8,113.52L839,566.64q1.41-25.15,2.16-35.46c2-27.92,3.79-44.38,4.59-48.87q1.62-9.19-1.33-11.07l-3-18.64s-24.06-21.23-34.87-25.68C816,398.94,853,383.74,869,386.69Z"/><path id="Path-94" class="cls-5" d="M910.78,722.21,933.7,902.57l-54.48,39.24a1.51,1.51,0,0,0,.89,2.73q74.14-.25,79.31-2.46,5.33-2.26,4.93-21L952,716.8"/><path id="Path-95" class="cls-5" d="M839.63,716.8l15.85,190.9-50.14,34.1a1.51,1.51,0,0,0-.4,2.09,1.49,1.49,0,0,0,1.25.66h64.07"/><line id="Path-96" class="cls-5" x1="879.67" y1="719.64" x2="891.32" y2="922.4"/><path id="Path-98" class="cls-5" d="M883,360.43a16.28,16.28,0,0,0,6.11,2,27.13,27.13,0,0,0,9.53-.39"/><path id="Path-99" class="cls-5" d="M852,422.36q-10.05,14.73-10.62,30.24t5.73,23.48l-4.15,34"/><path id="Path-100" class="cls-5" d="M894.17,474.47q10,8.82,18.07,9.79"/><polyline id="Path-101" class="cls-3" points="939.59 495.06 936.46 448.52 947.61 463.1"/><path id="Path-104" class="cls-5" d="M926.39,365.37a8.68,8.68,0,0,0,5,0c2-.49,4.2-2.13,6.62-4.94"/><path id="Path-105" class="cls-6" d="M927,368.63q1.88.94,6.49,0t7.48-5.9c2.55,0,5.07,2.47,7.59,7.42,3.77,7.42,1.42,16.75,4.5,21.67q3.08,4.9,9.86,9.11-22.3,2.69-30-9.9T927,368.63Z"/><polygon id="Path-36" class="cls-2" points="258.59 360.03 273.07 356.88 278.23 328.49 273.47 321.99 271.77 312.93 265.03 311.71 262.09 305.07 264.44 298.4 266.72 296.53 264.77 284.47 310.21 284.49 312.74 286.16 317.85 298.34 320.06 311.87 316.39 322.99 310.68 329.56 302.89 333.82 300.13 333.32 295.74 359.59 315.37 360.25 295.81 379.3 256.95 377.31 258.59 360.03"/><path id="Path-20" class="cls-3" d="M264.32,358.41c3.56-.68,6.47-1.19,8.75-1.53q1.65-12.84,5.16-28.39a23.78,23.78,0,0,1-4.76-6.5,34.16,34.16,0,0,1-1.65-9q-11-1.11-9.37-9.91t11.3-6"/><path id="Path-21" class="cls-3" d="M315.22,293q6.61,13.32,4.18,22.14-6,17.66-20.2,18.83l-3.46,25.67,9.9.25"/><path id="Path-22" class="cls-3" d="M266.13,292.82a15,15,0,0,1,9.33-.23"/><path id="Path-23" class="cls-6" d="M264.92,289.5q7.62-1.9,12.74-1c.59-1.5,1.29-3.17,2.12-5q9.15,13.82,33,3.62c23.81-10.2,3.23-51.41-20.87-39q-13,6.94-15.22,12.35-9.47-.33-12.11,4.72Q259.58,271.88,264.92,289.5Z"/><path id="Path-24-2" data-name="Path-24" class="cls-4" d="M219.26,499.2l-5.32,55.88q42.65,14.68,66.81,14.46c16.11-.15,70.7-15.72,70.7-15.72l-5.63-57.59S363,388.58,353.14,380.5s-38.92-24.18-40.65-23.72-8.24,14.34-24,15.35S259.15,357.8,258,357.9s-41.84,9.72-42.51,10.08S219.26,499.2,219.26,499.2Z"/><path class="cls-3" d="M347.38,467.2s-5-41.73-6-46.68,4.7,26.94,8.2,28.36"/><rect class="cls-2" x="212.74" y="447.79" width="767.02" height="227.63"/><line class="cls-3" x1="757.91" y1="447.79" x2="791.09" y2="447.79"/><line class="cls-3" x1="548.62" y1="447.79" x2="698.36" y2="447.79"/><line class="cls-3" x1="212.74" y1="661.8" x2="212.74" y2="515.46"/><line class="cls-3" x1="811.51" y1="675.43" x2="370.81" y2="675.43"/><line class="cls-3" x1="979.76" y1="535.88" x2="979.76" y2="664.35"/><rect class="cls-4" x="234.43" y="471.81" width="723.64" height="179.61"/><polyline class="cls-3" points="958.07 556.27 958.07 651.41 234.43 651.41 234.43 525.47"/><polyline class="cls-3" points="361.02 471.81 958.07 471.81 958.07 495.71"/><path class="cls-2" d="M294.15,545.62h-23V529.13H336v16.49h-23.1V597H294.15Z"/><path class="cls-2" d="M362.4,529.13V554h26.19V529.13h18.77V597H388.59v-26.5H362.4V597H343.64V529.13Z"/><path class="cls-2" d="M464.89,529.13,492.84,597h-21l-5.36-13.4H440.87L435.61,597h-21l27.95-67.84ZM445.2,569.75h16.91l-3.4-8.35c-1.55-3.92-4.75-14.54-4.75-14.54h-.62s-3.19,10.52-4.74,14.54Z"/><path class="cls-2" d="M549.23,529.13H568V597H550l-31.87-39-.2.1s.82,9.07.82,13.82V597H500V529.13H518.3l31.45,38.35H550s-.73-9.07-.73-13Z"/><path class="cls-2" d="M599.86,529.13v26.81h4.22l21.76-26.81h22.27L621.3,562.74V563l29.6,34H627.08l-23-25.77h-4.22V597H581.09V529.13Z"/><path class="cls-2" d="M722.55,597H703.79V570.89l-26.91-41.76h21.44l9.9,14.84c.93,1.55,4.75,9.39,4.75,9.39h.31s4.12-7.84,5.05-9.39l9.79-14.84h21.55l-27.12,41.76Z"/><path class="cls-2" d="M825.25,562.64c0,20.41-14.85,35.57-37.63,35.57-22,0-37.74-14.12-37.74-35.57,0-19.7,15.88-34.75,37.74-34.75C809.27,527.89,825.25,542.94,825.25,562.64Zm-55.47.1c0,11.76,7.73,18.35,17.84,18.35s17.73-6.59,17.73-18.35c0-10.62-7.63-17.73-17.73-17.73S769.78,552.12,769.78,562.74Z"/><path class="cls-2" d="M899.8,529.13V569c0,19.8-14.23,29.18-32.79,29.18s-32.9-9.38-32.9-29.18v-39.9H853V568c0,8.56,4.54,13.71,14,13.71,9.28,0,14-5.15,14-13.71V529.13Z"/><path class="cls-6" d="M317.65,521.3h0Z"/><path class="cls-2" d="M180.41,462.52c-6.86,19.69-8.79,35.14,10.89,40.33,6.61.95,14.72,2.15,21.07,3,55.44,7.23,88.87,5,110.27.87,27.51.46,51.86-16.41,48.61-20.49-6.08-6.48-45.51-3.6-54.82,3.87-3.78,1-95.2-18.2-109.38-15.79,0,0,3.77,1.64,5-6.38S182.84,455.53,180.41,462.52Z"/><path class="cls-3" d="M179.36,465.6c-6,18.21-6.7,32.33,11.94,37.25,6.61.95,14.72,2.15,21.07,3,55.44,7.23,88.87,5,110.27.87,27.51.46,51.86-16.41,48.61-20.49-6.08-6.48-45.51-3.6-54.82,3.87-3.78,1-96.21-18.41-109.38-15.79"/><path id="Path-108-3" data-name="Path-108" class="cls-2" d="M979,480.29l2.84,4-49.33,39L914,532.86l-10.42,18.06-3,14,34.6-9.35,6.29-10.35c28.19-15.14,53.21-32.2,73.13-52.34l10.28-9.84v-8.6l-22.36-23.8C992.41,461.6,983.38,472.48,979,480.29Z"/><path id="Path-92" class="cls-5" d="M980.67,482.42l1.19,2.12-48.23,38.34q-16.23,7.05-20.94,12.5c-4.72,5.47-15.44,29.34-11,29.66q4.49.32,33.37-9.44"/><path id="Path-93" class="cls-5" d="M1005,452.6q22.38,20.77,19.52,29.4c-1.91,5.74-24.12,31.79-83.08,63.25l-5.81,10.38"/><path id="Path-24-3" data-name="Path-24" class="cls-4" d="M238.33,422.55c-1.67-3.88-11.29-56.17-22.82-54.57-11.46,2.94-42.15,92.54-40.23,93.15S216,471.69,220.1,472,240,426.42,238.33,422.55Z"/><path class="cls-3" d="M235.38,417c2.48,8.14-2.9,29.88-2.9,29.88"/><rect class="cls-7" width="1200" height="1200"/></svg>