<svg id="Layer_1" data-name="Layer 1" xmlns="http://www.w3.org/2000/svg" viewBox="0 0 1200 1200"><defs><style>.cls-1{fill:#e8e7e6;}.cls-2,.cls-4,.cls-7{fill:none;}.cls-2,.cls-4{stroke:#1d252e;stroke-linecap:round;stroke-linejoin:round;}.cls-2{stroke-width:4px;}.cls-3{fill:#9cd3bf;}.cls-4{stroke-width:3.83px;}.cls-5{fill:#fff;}.cls-6{fill:#1d252e;}</style></defs><path id="Oval" class="cls-1" d="M600,914.5c165.41,0,299.5-210.66,299.5-359.5S765.41,285.5,600,285.5,300.5,406.16,300.5,555,434.59,914.5,600,914.5Z"/><path class="cls-2" d="M562.49,358c6.16,70.81,11.67,165.81.26,371.11"/><path class="cls-2" d="M489.46,420.24c32.15,63.22,68.85,202.46,73.29,308.91"/><path class="cls-3" d="M445.35,270.7c-2.21-3.53-4.32-6.9-5.55-8.44A53.56,53.56,0,0,0,428.14,279c-15.05-4.9-17.23,4.94-18.82,21.51-26-8-33.66-1.27-30.12,25.62-13.14-1.38-28.58-2-25.36,14.61-9.11,1.47-23.63,3.38-23.46,5.77s6.64,5.68,9.85,8.47a384.84,384.84,0,0,1,44.43,44.33c21.14,22.88,49.81,40,78.87,40.59,17.58.5,35.18-9.3,41.55-25.3C525.27,352,474.76,316.53,445.35,270.7Z"/><path class="cls-2" d="M417,390.91c16.4,14.19,65.81,31.4,71.32,26.64s-2.52-59.46-16.38-76.14S393.42,296.73,386.78,304,400.56,376.73,417,390.91Z"/><path class="cls-2" d="M384.18,342.84c-8.43-.57-48.18,3.23-39.79,8.93,47.23,32,59.54,82.31,137.43,78.06"/><path class="cls-4" d="M427,303.93c1.38-8,11.89-38.59,14.41-29.19,5.72,21.39,48.69,53.34,59.26,95.21,5.55,22-2.24,46-2.24,46"/><path class="cls-2" d="M358.13,338.21c.43-9.29,3.36-8.25,18.13-7.09"/><path class="cls-2" d="M426.12,283c-9.1-1.91-8.84,1.18-11.42,15.77"/><path class="cls-3" d="M557.28,726.62h-49c-14.31-78.15-41.38-155-51.47-234C502.76,555,548.92,649.14,557.28,726.62Z"/><path class="cls-3" d="M636.11,462.65c-2.6,85.37-10.72,177.59-20.4,264H569.83c-8-92.61,26.61-218.62,66-302.92C636.33,436.61,636.32,449.6,636.11,462.65Z"/><path class="cls-5" d="M746.86,739.16v37.66A12.9,12.9,0,0,1,734,789.69h-3.71l-.28,1.74L697.54,994.55c-1,6-6.95,10.56-13.93,10.56H517.47c-7,0-13-4.54-13.93-10.56L471.09,791.43l-.28-1.74H467.1a12.89,12.89,0,0,1-12.87-12.87V739.16a12.9,12.9,0,0,1,12.87-12.88H734A12.9,12.9,0,0,1,746.86,739.16Z"/><path class="cls-2" d="M728.73,799.37,697.54,994.55c-1,6-6.95,10.56-13.93,10.56H517.47c-7,0-13-4.54-13.93-10.56L472.45,799.91"/><path class="cls-2" d="M711.65,423.69c-39.37,56.93-78.1,212.78-86.67,306.45"/><path class="cls-3" d="M707.13,594.83a451.64,451.64,0,0,1-14.69,109.28c-1.78,5.39-3.75,16.76-4.53,22.51h-55.7c2.56-26.23,14-50.8,21.27-75.87,15.57-45.74,27.19-78.48,49.15-118.65C706,550.5,707.45,575.22,707.13,594.83Z"/><path class="cls-6" d="M746.86,739.16v37.66A12.9,12.9,0,0,1,734,789.69H467.1a12.89,12.89,0,0,1-12.87-12.87V739.16a12.9,12.9,0,0,1,12.87-12.88H734A12.9,12.9,0,0,1,746.86,739.16Z"/><path class="cls-3" d="M869.62,365.37c-4.54-4.11-9.77-9.84-16.88-12.43,3.53-15.43-6.47-16.71-23.12-16.8,5.65-26.64-1.76-33.64-28.23-27.7.2-13.21-.62-28.64-16.83-23.94-2.28-8.95-5.49-23.23-7.86-22.84s-5.06,7.11-7.54,10.57A385.59,385.59,0,0,1,729,320.47c-20.88,23.11-35.32,53.2-33.33,82.2,1.09,17.56,12.52,33.85,31.34,42.46C798.66,460.25,844.34,375.21,869.62,365.37Z"/><path class="cls-2" d="M740.22,351.89c-12.65,17.61-25.34,68.36-20.11,73.42s59-7.85,74.36-23.16S831.91,320,824.09,314,752.88,334.28,740.22,351.89Z"/><path class="cls-2" d="M785.15,314.91c-.19-8.44-7.56-47.7-12.47-38.82C745,326,697.42,340.3,705.1,415"/><path class="cls-4" d="M827.76,354.06c8.07.66,39.5,8.37,30.36,11.72-20.79,7.63-48.74,53.29-89.49,67.59-21.37,7.5-46,1.91-46,1.91"/><path class="cls-2" d="M787.41,288.55c9.29-.41,8.53,2.6,8.7,17.42"/><path class="cls-2" d="M848.55,351.29c1.09-9.24-2-8.69-16.73-10"/><path class="cls-3" d="M606.05,205c0-4.17,0-8.15-.26-10.11a53.5,53.5,0,0,0-18.71,8c-10.2-12.11-17.24-4.9-27.34,8.34-17.86-20.54-27.92-18.84-39.1,5.87-10.44-8.11-23.25-16.74-29.25-1-8.52-3.56-21.86-9.6-23-7.48s2.63,8.33,3.89,12.39a384.23,384.23,0,0,1,14.35,61.11c4.91,28.39,19.71,54.83,39.26,72,17.25,13.84,43.9,12,56.81,2.19C632.15,320.6,606.73,259.54,606.05,205Z"/><path class="cls-2" d="M518.51,292.13c6.44,20.71,36.35,64,43.54,62.88s32.22-54.46,29.25-75.94-43.1-79.37-52.56-76.72S512.06,271.42,518.51,292.13Z"/><path class="cls-2" d="M516,234c-6.86-4.92-42.63-22.67-38.5-13.4,23.21,52.12,7.71,100.08,71.08,136.54"/><path class="cls-4" d="M572.93,223.54c5.39-6,30.46-26.5,27.64-17.19-6.42,21.19,13.21,71,.1,112.15-6.87,21.57-25.52,34-25.52,34"/><path class="cls-2" d="M496.33,216.32c5.28-7.66,7.22-5.24,19.15,3.54"/><path class="cls-2" d="M583.24,205.27c-6.72-6.43-8.13-3.66-18,7.37"/><rect class="cls-7" width="1200" height="1200"/></svg>