<?xml version="1.0" encoding="UTF-8"?><svg id="a" xmlns="http://www.w3.org/2000/svg" viewBox="0 0 800 800"><defs><style>.f{fill:#e9e8e8;}.g,.h{fill:#fff;}.i{fill:#9dd5c0;}.j{fill:#1d252e;}.h,.k,.l{stroke:#1d252e;}.h,.k,.l,.m{stroke-linecap:round;stroke-linejoin:round;}.h,.l{stroke-width:2px;}.k{stroke-width:2.67px;}.k,.l,.m,.n{fill:none;}.m{stroke-width:4.19px;}.m,.n{stroke:#9dd5c0;}.n{stroke-miterlimit:10;stroke-width:2.94px;}</style></defs><path class="f" d="M619.21,617.41c-7.86,9.3-18.42,17.46-32.25,24.29-30.73,15.18-77.63,23.8-147.21,23.8-9.39,0-18.45-.14-27.18-.43-11.59-.37-22.61-.99-33.09-1.85-177.24-14.46-201.29-96.01-226.93-194.45-28.29-108.65,37.31-262.43,167.63-262.43,85.45,0,177.51,66.11,238.74,142.27,28.91,35.94,50.95,74.12,62.17,108.64,1.27,3.89,2.4,7.73,3.39,11.51,15.46,59.35,25.28,112.58-5.27,148.65Z"/><g><path class="i" d="M491.24,357c-6.83-21.04-33.34,3.43-53.8-.7-14.15-2.86-51.16,64.9-39.41,68.02,19.72,5.43,75.54,31.87,89.12,21.42,12.67-9.75,7.38-78.58,4.09-88.73Z"/><path class="g" d="M400.57,416.94c-15.09-8.22-32.75-22.61-33.12-26.27-4.23-42.53,87.56-109.3,87.56-109.3,22.75-12.05,31.41-48.72,51.44-28.78,20.03,19.94-21.89,50.96-31.41,54.1-3.04,4.22-33.62,32.49-45.39,53.58"/><path class="l" d="M431.73,356.75c11.77-21.09,40.71-45.62,43.75-49.84,9.52-3.14,54.76-36.67,31.66-53.99-23.1-17.32-28.94,16.62-51.69,28.67,0,0-91.79,66.7-87.56,109.23,.33,3.35,10.69,12.84,24,20.72"/></g><g><path class="g" d="M489.19,236.21l-5.07,35.27s-1.2,28.1,15.62,40.42c18.98,13.9,24.7,7.29,24.7,7.29l3.12,24.41s-33.64,5.18-40.07,6.63,59.42,41.99,59.42,41.99l72.85-39.99-53.45-8.18-4.68-34.81,2.34-36.71c8.9-4.5,16.41-10.21,10.48-20.06-5.93-9.85-8.21-7.58-8.21-7.58l-6.88-19.22-70.17,10.56Z"/><path id="b" class="l" d="M585.56,346.51s-15.5-1.83-19.27-2.48c-1.52-14.24-4.68-34.81-4.68-34.81,0,0,3.66-29.73,2.34-36.71,11.34-4.49,14.83-11.18,10.48-20.06-4.35-8.88-11.28-10.4-20.76-4.54"/><path id="c" class="l" d="M485.62,260.15c-3.02,16.17-1.91,28.58,3.33,37.23,11.72,16.98,20.02,24.83,35.48,21.8l3.12,24.41-15.31,1.87"/><path id="d" class="l" d="M563.93,237.75c-5.8-.2-10.81,1.08-15,3.85"/><path id="e" class="j" d="M564.37,231.9c-8.69,.27-15.62,1.67-20.79,4.2-1.61-2.12-3.5-4.46-5.65-7.03-5.58,17.46-22.57,24.35-50.99,20.67-42.62-5.52-16.67-76.07,27.42-67.12,15.97,3.46,14.2,3.2,18.16,8.29,9.96-3.2,17.12-2.52,21.46,2.06,7.3,5.57,10.76,18.54,10.38,38.92Z"/></g><path class="j" d="M652.96,617.41c-7.86,9.3-18.42,17.46-32.25,24.29-30.73,15.18-77.63,23.8-147.21,23.8-9.39,0-18.45-.14-27.18-.43l7.62-58.05,1.71-13.03,195.97-2.68,.21,3.97v.05l1.13,22.09Z"/><path class="i" d="M651.83,595.27c.95,55.9-205.18,46.56-204.82-3.3,.3-41.24,11.49-180.23,15.34-227.04,.74-8.95,7.87-16.04,16.83-16.72l26.67-2.02c.48,39.11,87.46,38.39,86.97-.72,0,0,41.71,10.71,52.32,40.76,10.01,28.34,5.73,153.15,6.68,209.05Z"/><path class="g" d="M707.83,343.24c1.87-12.6,.18-27.04-4.63-37.4-8.45-18.2-117.78-67.52-117.78-67.52,0,0-34.88-53.02-38.06-29.13-3.19,23.89,8.21,40.62,8.21,40.62l90.17,68.55,.19,9.18"/><path class="l" d="M706.22,314.28c-.81-3.01-1.81-5.85-3.01-8.44-8.45-18.2-117.78-67.52-117.78-67.52,0,0-34.88-53.02-38.06-29.13-3.19,23.89,8.21,40.62,8.21,40.62l76.88,58.45"/><path class="i" d="M608.05,348.32s27.31,98.36,42.83,89.12c30.02-17.86,63.36-78.61,60.92-109.25-20.94,2.44-69.07-19.74-69.07-19.74l-34.68,39.87Z"/><path class="l" d="M524.43,319.18c4.44-1.6,12.03-4.68,14.87-7.29"/><path class="l" d="M409.12,195.11c.83,3.03,1.71,6.16,3.75,8.55s5.58,3.79,8.4,2.41c.77-.38,1.45-.94,2.26-1.23,3.31-1.18,6.13,2.48,8.14,5.36,1.96,2.81,5.36,5.59,8.47,4.17,.87-.39,1.59-1.08,2.49-1.38,1.67-.55,3.55,.43,4.58,1.86s1.41,3.21,1.76,4.94"/><path class="l" d="M551.09,175.18c3.11-.43,6.33-.9,8.96-2.61s4.48-5.05,3.48-8.02c-.28-.81-.75-1.56-.93-2.4-.75-3.43,3.25-5.75,6.37-7.38,3.04-1.58,6.23-4.59,5.23-7.87-.28-.91-.87-1.71-1.05-2.65-.33-1.73,.89-3.46,2.44-4.3s3.37-.98,5.13-1.11"/><path class="l" d="M441.11,158.38c3.48,3.02,11.42,1.02,15.04,1.85s3.11,4.95,2.92,6.59-.04,3.52,1.14,4.58c2.19,1.96,6.04-.32,8.23,1.65,2.52,2.27,.68,8.28,3.9,9.06"/><path class="l" d="M513,129.24c-.65,4.56,5.34,10.15,6.6,13.64s-2.47,5.29-3.95,6.02-2.98,1.87-3.23,3.44c-.46,2.91,3.55,4.9,3.08,7.81-.54,3.35-6.59,5.06-5.5,8.19"/><path class="l" d="M606.95,192.87c-1.91-.46-3.93-.49-5.85-.08-1.64,.35-3.53,1.56-3.19,3.2,.15,.72,.71,1.28,.98,1.97,.74,1.93-1.19,3.95-3.2,4.41s-4.11-.05-6.17,.08-4.37,1.29-4.6,3.34c-.08,.69,.1,1.41-.11,2.07-.36,1.18-1.72,1.69-2.91,2-2.45,.65-4.95,1.13-7.46,1.46"/><g><g><path class="i" d="M406.8,440.26H202.01c-4.91,0-8.74,4.28-8.18,9.16l17.33,153.42c.47,4.16,3.99,7.31,8.18,7.31h204.79c4.91,0,8.74-4.28,8.18-9.16l-17.33-153.42c-.47-4.16-3.99-7.31-8.18-7.31Z"/><path class="j" d="M387.77,668.9c0,6.48-34.46,11.72-76.97,11.72s-76.97-5.24-76.97-11.72v-5.47c0-6.47,34.46-11.71,76.97-11.71s76.97,5.24,76.97,11.71v5.47Z"/><path class="i" d="M333.51,658.19c0,6.98-48.05,6.98-48.05,0v-135.57h48.05v135.57Z"/><polyline class="k" points="202.09 449.04 405.3 449.04 421.53 597.72"/></g><circle class="g" cx="306.75" cy="522.88" r="20.9"/><path class="k" d="M285.85,522.88c0-11.55,9.36-20.9,20.9-20.9,5.77,0,11,2.34,14.78,6.12"/><path class="k" d="M326.01,531.02c-3.17,7.5-10.6,12.77-19.26,12.77-6.42,0-12.17-2.9-16-7.45"/></g><path class="l" d="M186.74,392.3c2.83,.11,5.64,.66,8.3,1.64-1.84,4.49-4.35,8.72-7.4,12.49l11.1,3.32-5.09,8.07c-.36,.57-.73,1.27-.43,1.87,.23,.45,.75,.66,1.24,.82l12.92,4.41"/><path class="l" d="M180.34,489.62c-.77,2.72-1.97,5.33-3.54,7.68-3.93-2.85-7.45-6.27-10.41-10.13l-5.83,10.01-6.65-6.84c-.47-.48-1.07-1.01-1.72-.85-.5,.11-.82,.58-1.09,1.01l-7.32,11.52"/><path class="l" d="M154.64,438.94c.63,2.35,1.09,4.74,1.37,7.15l10.14-5.61,2.2,9.28c.16,.65,.4,1.41,1.04,1.62,.48,.16,1-.08,1.45-.31l12.18-6.15"/><g><g><circle class="h" cx="213.25" cy="150.56" r="68.82"/><line class="n" x1="214.28" y1="88.01" x2="214.28" y2="95.84"/><line class="n" x1="243.68" y1="96.05" x2="239.9" y2="102.9"/><line class="n" x1="267.42" y1="118.94" x2="260.8" y2="123.12"/><line class="n" x1="275.59" y1="149.48" x2="267.77" y2="149.07"/><line class="n" x1="268.09" y1="179.33" x2="261.03" y2="175.96"/><line class="n" x1="244.36" y1="203.25" x2="240.29" y2="196.57"/><line class="n" x1="214.49" y1="211.3" x2="214.26" y2="203.48"/><line class="n" x1="183.77" y1="203.17" x2="187.64" y2="196.37"/><line class="n" x1="160.65" y1="179.8" x2="167.46" y2="175.95"/><line class="n" x1="152.3" y1="150.38" x2="160.13" y2="150.23"/><line class="n" x1="160.06" y1="119.56" x2="167.17" y2="122.83"/><line class="n" x1="183.52" y1="96.19" x2="187.64" y2="102.84"/></g><line class="m" x1="213.25" y1="150.56" x2="236.17" y2="128.81"/><line class="m" x1="257.46" y1="164.87" x2="211.89" y2="150.27"/><circle class="i" cx="213.37" cy="149.8" r="4.8"/><circle class="j" cx="213.37" cy="149.8" r="2.89"/></g></svg>