<svg id="Layer_1" data-name="Layer 1" xmlns="http://www.w3.org/2000/svg" viewBox="0 0 1200 1200"><defs><style>.cls-1{fill:#e9e8e8;}.cls-2{fill:#9dd5c0;}.cls-3{fill:#fff;}.cls-10,.cls-4,.cls-9{fill:none;stroke-linecap:round;stroke-linejoin:round;}.cls-10,.cls-4{stroke:#1d252e;}.cls-4{stroke-width:4px;}.cls-5,.cls-6{fill:#1d252e;}.cls-6{font-size:28.76px;font-family:Athelas-Italic, Athelas;font-style:italic;}.cls-7{letter-spacing:0em;}.cls-8{letter-spacing:-0.01em;}.cls-9{stroke:#fff;}.cls-10,.cls-9{stroke-width:2.55px;}</style></defs><path id="Path-141" class="cls-1" d="M441.86,467.29c110.69-74.84,365-274.08,498.13-158.15s60.26,672.6-332,612.66c-147.36-22.52-370-34.95-401.22-104C154.88,702.94,372.75,514,441.86,467.29Z"/><path class="cls-2" d="M379.8,467.21H299.2a43.86,43.86,0,0,0-43.86,43.86h0a43.74,43.74,0,0,0,2,13L228.8,552.65l.43.86,45.06-6.33a43.68,43.68,0,0,0,24.91,7.76h80.6a43.87,43.87,0,0,0,43.87-43.87h0A43.87,43.87,0,0,0,379.8,467.21Z"/><path class="cls-3" d="M301.66,509.92q-1.41,1.77-2.84,3.29a.78.78,0,0,1-1.19,0c-.23-.32-.5-.67-.74-1a.67.67,0,0,1,.09-.89c4.28-4.35,8.68-11.32,11.87-18.21a.84.84,0,0,1,1-.45l2.75.79a.81.81,0,0,1-.68.43.84.84,0,0,0-.62.46c-1.35,2.77-2.86,5.55-4.5,8.2a.63.63,0,0,0,.37,1l.37.1a.74.74,0,0,1-.44.38.83.83,0,0,0-.54.64l-2.84,24a.84.84,0,0,1-.84.7H301.5a.63.63,0,0,1-.67-.7L303,510.29C303.09,509.59,302.13,509.33,301.66,509.92ZM332.79,508c.41-1.22.89-2.77,1.36-4.33a.63.63,0,0,0-.65-.82h-6.87a.84.84,0,0,0-.84.7l-2.67,22.47c-.32,2.76-1.43,3.33-6.91,3.37a.65.65,0,0,1-.67-.51,10.59,10.59,0,0,0-.3-1.24.79.79,0,0,1,.83-.95h2.66a1.65,1.65,0,0,0,1.65-1.37L323,503.58a.64.64,0,0,0-.67-.7h-5.65a.87.87,0,0,0-.74.43,41.2,41.2,0,0,1-4.48,6.43.81.81,0,0,1-1.13.11c-.27-.24-.57-.49-.86-.71a.65.65,0,0,1,0-1c3.18-3.59,6.12-9.18,8.19-14.85a.86.86,0,0,1,1-.52l2.71.69a.63.63,0,0,1-.51.37.87.87,0,0,0-.65.5c-.66,1.71-1.39,3.44-2.2,5.11a.63.63,0,0,0,.61.92h17.88l.67,0a.63.63,0,0,1,.64.8c-.44,1.57-1.55,5-2.52,7.32a.85.85,0,0,1-.93.51l-1-.18A.61.61,0,0,1,332.79,508Zm-14.11,2a.83.83,0,0,1-.54.39.89.89,0,0,0-.64.5,44.57,44.57,0,0,1-7.29,12.24.82.82,0,0,1-1,.16c-.28-.2-.59-.39-.89-.57a.63.63,0,0,1-.11-1,41.53,41.53,0,0,0,6.88-11.9.85.85,0,0,1,1-.5Zm13.88,12.61a48.27,48.27,0,0,0-3.82-12.21.76.76,0,0,1,.53-1l1.14-.36a.71.71,0,0,1,.88.31,45.65,45.65,0,0,1,4.14,12.46.8.8,0,0,1-.57.82l-1.36.45A.68.68,0,0,1,332.56,522.63Z"/><path class="cls-3" d="M355.82,500.78l1.58.4-.32.55a54.26,54.26,0,0,1-5.85,16.57.62.62,0,0,0,.13.82,26.23,26.23,0,0,1,3.8,3.57.66.66,0,0,1-.08.87l-.95,1a.79.79,0,0,1-1.17,0,26.53,26.53,0,0,0-3-2.93.83.83,0,0,0-1.16.19,26.26,26.26,0,0,1-8.24,7.2.75.75,0,0,1-1-.2,11.72,11.72,0,0,0-.69-1,.71.71,0,0,1,.3-1,23.27,23.27,0,0,0,7.73-6.77.64.64,0,0,0-.1-.92c-1-.78-2.14-1.51-3.22-2.19a.85.85,0,0,0-1.18.41h0a.84.84,0,0,1-1.13.44l-1-.52a.63.63,0,0,1-.28-.81c1.37-3.25,3.06-7.68,4.72-12.25a.63.63,0,0,0-.63-.85h-2.59a.64.64,0,0,1-.67-.7l.13-1.1a.84.84,0,0,1,.84-.7h3.52a.88.88,0,0,0,.81-.56c.87-2.53,1.67-5,2.39-7.17a.84.84,0,0,1,.9-.56l2.77.31a.58.58,0,0,1-.45.4.9.9,0,0,0-.61.54c-.63,1.9-1.37,4-2.15,6.18a.64.64,0,0,0,.64.86h5.65Zm-8.22,3.16c-1.21,3.32-2.48,6.65-3.65,9.62a.6.6,0,0,0,.27.77c1.3.72,2.6,1.55,3.89,2.4a.83.83,0,0,0,1.15-.31,49,49,0,0,0,4.57-12.24.64.64,0,0,0-.66-.78H348.4A.86.86,0,0,0,347.6,503.94Zm32,7-.14,1.18a.85.85,0,0,1-.84.7h-8.82a.84.84,0,0,0-.84.7l-1.47,12.43c-.36,3-1.64,3.51-8.71,3.46a.65.65,0,0,1-.66-.5,10.22,10.22,0,0,0-.31-1.17.81.81,0,0,1,.83-1c1.58,0,3,0,3.94,0,1.46,0,1.89,0,2-.83l1.48-12.47a.64.64,0,0,0-.68-.7h-9a.64.64,0,0,1-.68-.7l.14-1.18a.84.84,0,0,1,.84-.7h9a.84.84,0,0,0,.84-.7l.63-5.3a.85.85,0,0,1,.88-.7l.3,0a.91.91,0,0,0,.57-.17,48,48,0,0,0,5.79-5.15.65.65,0,0,0-.47-1.13H360a.64.64,0,0,1-.68-.7l.13-1.1a.84.84,0,0,1,.84-.7h17.93l.58-.16,2.11,1.31a1.2,1.2,0,0,1-.55.34.69.69,0,0,0-.33.23,64,64,0,0,1-9.81,8.79.78.78,0,0,0-.34.53l-.46,3.89a.64.64,0,0,0,.68.7h8.81A.64.64,0,0,1,379.61,510.92Z"/><path class="cls-3" d="M259.14,781.93c17.45-2.68,36.26-4.2,38.58,3.52s2.46,28.9-5.42,31.77-51.48,8-51.48,8l15.65,8.19-18.4,9.19-32.37-4.11-24.34,9.11s-30,1.69-41.15-3.43-18.41-13.92-14.65-16.16,14.36-4.71,25.86-4.6c-8.78-2.79-10.88-3.66-15.45-5.07s-47.58.26-52.95-.08-16.44-6.17-14.66-20.78,10.16-21.19,28.25-17.73S259.14,781.93,259.14,781.93Z"/><path class="cls-4" d="M269.66,780.25a119.68,119.68,0,0,1,23.89,1.38c9.68,5,8.28,29.52-1.25,35.59L181.36,847.65s-21.42.13-26.26-.55-21.3-2.59-27.66-10.28-3.53-10,10.67-12.92,38,4.11,38,4.11l46.18-23.45"/><path class="cls-4" d="M141,819.11,83,818.31c-21-1.48-18.21-41.51,2.83-40l1.81.07"/><polyline class="cls-4" points="208.25 810.85 139.29 791.27 147.65 791.07"/><path class="cls-4" d="M243.76,826.89l12.71,6.57s-10.74,7.88-18.4,9.19-29.86-3-29.86-3"/><path id="Path-89" class="cls-5" d="M249,779.06c21.9,11.46,42.18-1.49,48.93,23.55s-53.71,39.91-69.78,47.95S122,853.4,107,847.54C90.6,840.25,50.46,828.75,69.07,803c27.74-38.41,37.49-27.78,52.83-38.24C133.62,754.39,230.64,769.77,249,779.06Z"/><line id="Path-25" class="cls-3" x1="120.53" y1="730.66" x2="120.2" y2="734.57"/><path id="Path-26" class="cls-3" d="M87.13,713.44c-.15,1.11-6.15,24.42,6,46.79,11.4,11.37,70.5.48,84.43-1.47,16.88,2.35,26.69-1.49,37.34-8.71,16-10.83-1.24-18.5-12-17.54s-23.36,7.61-28.87,8.29c-14.5-.44-46-2.94-53.31-5.48l1.62-13.05"/><path id="Path-26-2" data-name="Path-26" class="cls-4" d="M86.08,724.38c-.51,9.09.39,22.48,7.46,35.54,11.4,11.37,70.5.48,84.43-1.47,16.88,2.35,26.7-1.49,37.34-8.71,16-10.83-1.23-18.5-12-17.54s-23.35,7.61-28.87,8.29c-14.5-.44-46-2.94-53.31-5.48l.66-5.36"/><path id="Path-88" class="cls-2" d="M152.13,652.16c-16.19-14.89-24.92-15.38-31.58-15.12s-26.41,25-36.74,79.71l48.71,11.52,10.39-2.21Z"/><path id="Path-103" class="cls-3" d="M176.79,554.86l16.14-1L199.75,568v17.3l-7.07,13.29-8.49,6.77-.41,33.4L206,639.9l-9.74,19.63c-13.89,7.43-30,8.53-47.34,6.44l-23.75-22.58,30.9-7.49,2.48-27.78-9.77-10.69"/><path id="Path-86" class="cls-4" d="M198.14,563.92a41.06,41.06,0,0,1,2.14,18.29q-1.56,15.43-17.07,23.22l.57,33.35,13.15.66"/><path id="Path-87" class="cls-4" d="M149.92,599.07q5.88,6.7,8.41,7.08l-1.08,30L138,637.77"/><path id="Path-98" class="cls-4" d="M186,603.83a18.18,18.18,0,0,1-6.68,3.11,30,30,0,0,1-10.81.7"/><path class="cls-2" d="M215.62,751.32s-4.51,22.24,5.27,60c5.58,21.57-123.83,12-119.17-2.94,2.65-8.51,5.06-49.81,5.06-68.78-9.24-42.48-3.41-73.66,1.55-83.51s16.59-18.14,22.45-17.62c16-.39,21,6.14,41,5.33,16-.76,30.44-6.8,37.6-4.69,36.62,10.81,11.71,88.92,11.71,88.92C218.72,729.36,215.62,751.32,215.62,751.32Z"/><path id="Path-93" class="cls-3" d="M256.51,700.63l87.57-16q8.19-14.58,13.63-18.4c5.44-3.83,19.56-13.76,24-3.68s-4.21,19-7.89,23.41c-2.26,2.72-11.07,8.13-11.07,8.13s-79.29,38.69-88,43.09C251.68,749.56,233.44,713,256.51,700.63Z"/><path id="Path-93-2" data-name="Path-93" class="cls-4" d="M274.66,696.24l69.42-11.59q8.19-14.58,13.63-18.4c6-4.63,21.38-16.11,25.11-1.16s-20.1,29-20.1,29S298,726.68,273.53,738.48a16,16,0,0,1-13.11,1.15"/><path id="Path-88-2" data-name="Path-88" class="cls-2" d="M250.83,739.33c17.31,0,20.38-38.38,20-43.76s-31.58-41.67-38-47.24-28.68-16.39-41.78-2.94S196.14,689,196.14,689,233.52,739.33,250.83,739.33Z"/><path id="Path-88-3" data-name="Path-88" class="cls-4" d="M191.44,679.57a125.9,125.9,0,0,0,8.21,16.28c1.8,2.91,12.66,16.76,24.86,28.06"/><path id="Path-102" class="cls-5" d="M196.89,549.16c-.92-10.31-10.47-20.07-17-23.42a41,41,0,0,0-39.41,1c-17.61,9.8-25.77,32.53-22.72,52.86q3.06,20.34,18.42,38.86,7.5,5,12.93,2.93c23.73-9.39,34.15-21.87,38.9-36.13,0,0-11.73-11.53-7.52-20.45C185.37,554.47,196.26,571.37,196.89,549.16Z"/><path id="Path-104" class="cls-4" d="M151.49,623.74a9.59,9.59,0,0,1-5.29,2q-3.47.44-9-2.67"/><path id="Path-105" class="cls-5" d="M152.19,627.55c-1.07,1.2-3.37,2.1-6.9,2.68s-7-.55-10.33-3.38c-2.71,1-4.4,4.8-5.1,11.25-1,9.68.36,14.41-1.69,20.86q-2,6.45-8.37,13.14,25.35-3.26,30.4-19.73C153.57,641.39,156.1,634.22,152.19,627.55Z"/><path class="cls-4" d="M102.26,702.47c-.27,11.17,1.08,22.35,3.26,26"/><path class="cls-2" d="M1135.46,410.64,1080.36,784c0,.64-.06,1.24-.11,1.88l-618.77-.11c0-.63,0-1.24,0-1.88l55-373.33a35.68,35.68,0,0,1,4.6-13.27,40,40,0,0,1,10.65-11.84,37.34,37.34,0,0,1,4.9-3.09,36.1,36.1,0,0,1,17-4.36l553.35.1c18.09,0,30.87,14.61,28.48,32.57"/><polygon class="cls-5" points="1109.44 401.39 535.37 401.39 482.46 787.13 1056.53 787.13 1109.44 401.39"/><polygon class="cls-3" points="1101.39 408.41 1098.26 431.22 1097.57 436.26 1050.4 780.12 490.51 780.12 537.68 436.26 541.5 408.41 1101.39 408.41"/><path class="cls-5" d="M1079.69,799.56l1.79-8.7a6,6,0,0,0-5.94-6.93l-738.79,1.25A9.91,9.91,0,0,0,327,794.7l.61,9.34c-.13,4,3,4.48,7,4.48Z"/><path class="cls-3" d="M1079.69,799.56l-2.24,16.38a9,9,0,0,1-8.93,7.78l-730.87-1.24a9.91,9.91,0,0,1-9.79-9.53l-.29-8.91c-.13-4,3-4.48,7-4.48Z"/><path class="cls-4" d="M1078.77,806.29l-1.32,9.65a9,9,0,0,1-8.93,7.78l-730.87-1.24a9.91,9.91,0,0,1-9.79-9.53l-.15-4.43"/><polygon class="cls-2" points="1101.39 408.41 1098.26 431.22 1097.57 436.26 537.68 436.26 541.5 408.41 1101.39 408.41"/><ellipse class="cls-5" cx="553.38" cy="422.19" rx="5.33" ry="4.75" transform="translate(-139.06 492.95) rotate(-43.18)"/><ellipse class="cls-3" cx="570.85" cy="422.19" rx="5.33" ry="4.75" transform="translate(-134.33 504.9) rotate(-43.18)"/><path class="cls-3" d="M588.9,417.17v1.06a3.34,3.34,0,0,1,3.38,3.86,4.71,4.71,0,0,1-4.56,4.07,3.42,3.42,0,0,1-2.58-1.12,3.46,3.46,0,0,1-.8-2.74,4.72,4.72,0,0,1,4.55-4.07v-1.06m0,0a5.8,5.8,0,0,0-5.61,5,4.39,4.39,0,0,0,4.44,5h0a5.78,5.78,0,0,0,5.61-5,4.39,4.39,0,0,0-4.43-5Z"/><polygon class="cls-2" points="1038.14 462.09 1000.54 733.96 549.04 733.96 588.32 462.09 1038.14 462.09"/><polygon class="cls-4" points="991.74 495.12 969.54 664.76 726.32 664.76 749.42 495.12 991.74 495.12"/><path class="cls-5" d="M797.93,550.43c-1.65,2.07-3.31,4-5,5.79a1.39,1.39,0,0,1-2.1,0c-.4-.57-.87-1.18-1.3-1.71a1.17,1.17,0,0,1,.17-1.56c7.52-7.66,15.26-19.92,20.86-32a1.52,1.52,0,0,1,1.74-.81l4.84,1.4a1.48,1.48,0,0,1-1.2.76,1.46,1.46,0,0,0-1.09.8c-2.38,4.87-5,9.77-7.92,14.43a1.1,1.1,0,0,0,.65,1.7l.66.17a1.33,1.33,0,0,1-.79.68,1.38,1.38,0,0,0-.93,1.12l-5,42.18a1.48,1.48,0,0,1-1.47,1.23h-2.39a1.12,1.12,0,0,1-1.19-1.23l3.83-32.27C800.45,549.86,798.76,549.39,797.93,550.43Zm54.75-3.33c.72-2.13,1.57-4.86,2.4-7.61a1.11,1.11,0,0,0-1.14-1.44h-12.1a1.48,1.48,0,0,0-1.47,1.24l-4.69,39.51c-.57,4.85-2.52,5.86-12.16,5.93a1.14,1.14,0,0,1-1.18-.9,18.4,18.4,0,0,0-.52-2.17,1.41,1.41,0,0,1,1.46-1.69c1.09,0,2.11,0,3,0H828a2.92,2.92,0,0,0,2.9-2.42l4.54-38.28a1.12,1.12,0,0,0-1.18-1.24h-9.93a1.55,1.55,0,0,0-1.31.76,70.4,70.4,0,0,1-7.88,11.31,1.43,1.43,0,0,1-2,.19c-.47-.42-1-.87-1.51-1.25a1.15,1.15,0,0,1-.08-1.72c5.6-6.31,10.76-16.14,14.41-26.11a1.51,1.51,0,0,1,1.74-.92l4.78,1.21a1.16,1.16,0,0,1-.9.65,1.55,1.55,0,0,0-1.16.88c-1.15,3-2.44,6.05-3.85,9a1.11,1.11,0,0,0,1.06,1.63h31.45l1.19,0a1.11,1.11,0,0,1,1.11,1.41c-.77,2.75-2.73,8.73-4.42,12.87a1.52,1.52,0,0,1-1.64.89l-1.73-.31A1.09,1.09,0,0,1,852.68,547.1Zm-24.81,3.51a1.47,1.47,0,0,1-1,.68,1.59,1.59,0,0,0-1.11.88c-3.23,7.86-7.92,16.08-12.83,21.53a1.44,1.44,0,0,1-1.85.27c-.48-.33-1-.68-1.55-1a1.12,1.12,0,0,1-.21-1.76c4.61-5.13,9-13,12.11-20.93a1.51,1.51,0,0,1,1.74-.88Zm24.41,22.17a85.11,85.11,0,0,0-6.71-21.46,1.32,1.32,0,0,1,.93-1.75l2-.64a1.27,1.27,0,0,1,1.54.54c3.47,6.95,6.39,15.67,7.29,21.93a1.38,1.38,0,0,1-1,1.43l-2.4.8A1.2,1.2,0,0,1,852.28,572.78Z"/><path class="cls-5" d="M893.19,534.36l2.78.69-.57,1c-2.42,11.9-5.84,21.53-10.28,29.14a1.1,1.1,0,0,0,.23,1.45,45.79,45.79,0,0,1,6.67,6.27,1.17,1.17,0,0,1-.14,1.53l-1.67,1.81a1.4,1.4,0,0,1-2.06.08,46,46,0,0,0-5.19-5.16,1.46,1.46,0,0,0-2,.34,46.43,46.43,0,0,1-14.5,12.65,1.3,1.3,0,0,1-1.76-.34,17.84,17.84,0,0,0-1.21-1.72,1.25,1.25,0,0,1,.52-1.85,41.06,41.06,0,0,0,13.59-11.91,1.12,1.12,0,0,0-.17-1.62c-1.84-1.37-3.75-2.66-5.66-3.85a1.49,1.49,0,0,0-2.07.72h0a1.49,1.49,0,0,1-2,.77l-1.77-.91a1.08,1.08,0,0,1-.5-1.42c2.4-5.73,5.39-13.52,8.31-21.54a1.12,1.12,0,0,0-1.12-1.51h-4.54a1.12,1.12,0,0,1-1.19-1.23l.23-1.93a1.48,1.48,0,0,1,1.48-1.23h6.18a1.53,1.53,0,0,0,1.42-1c1.54-4.44,3-8.72,4.21-12.61a1.5,1.5,0,0,1,1.58-1l4.88.56a1,1,0,0,1-.79.7,1.57,1.57,0,0,0-1.08,1c-1.11,3.34-2.4,7-3.78,10.87a1.12,1.12,0,0,0,1.12,1.51h10Zm-14.46,5.56c-2.13,5.83-4.37,11.69-6.42,16.91a1.05,1.05,0,0,0,.47,1.35c2.28,1.28,4.58,2.74,6.84,4.23a1.47,1.47,0,0,0,2-.55,86.44,86.44,0,0,0,8-21.52,1.12,1.12,0,0,0-1.16-1.38h-8.38A1.52,1.52,0,0,0,878.73,539.92ZM935,552.19l-.25,2.07a1.49,1.49,0,0,1-1.47,1.24H917.79a1.48,1.48,0,0,0-1.47,1.23l-2.6,21.86c-.62,5.23-2.87,6.16-15.3,6.08a1.15,1.15,0,0,1-1.17-.88,19.28,19.28,0,0,0-.55-2.06,1.42,1.42,0,0,1,1.47-1.7c2.77.05,5.24.1,6.93.1,2.56,0,3.31,0,3.49-1.47l2.6-21.93A1.12,1.12,0,0,0,910,555.5H894.2a1.11,1.11,0,0,1-1.18-1.24l.24-2.07a1.48,1.48,0,0,1,1.48-1.23h15.8a1.48,1.48,0,0,0,1.48-1.23l1.1-9.32a1.5,1.5,0,0,1,1.56-1.23l.53,0a1.49,1.49,0,0,0,1-.3,84.45,84.45,0,0,0,10.19-9,1.14,1.14,0,0,0-.82-2h-25a1.12,1.12,0,0,1-1.19-1.23l.23-1.94a1.48,1.48,0,0,1,1.48-1.23h31.53l1-.28,3.72,2.3a2,2,0,0,1-1,.6,1.41,1.41,0,0,0-.59.4A112.25,112.25,0,0,1,918.54,542a1.33,1.33,0,0,0-.58.93l-.81,6.85a1.11,1.11,0,0,0,1.18,1.23h15.5A1.12,1.12,0,0,1,935,552.19Z"/><path class="cls-5" d="M814.56,629.62l1.59-13.42a.91.91,0,0,0-.44-1,5.53,5.53,0,0,0-1.81-.45c-.26,0-.36-.2-.32-.54a2.37,2.37,0,0,1,.13-.51l1.75.11c.6,0,1.16.05,1.69.05s1.05,0,1.6-.05l1.65-.11a2.15,2.15,0,0,1,0,.51c0,.34-.17.52-.41.54a4.72,4.72,0,0,0-1.66.45,1.21,1.21,0,0,0-.54.93L815.54,635a.89.89,0,0,1-.24.05l-.28,0a.81.81,0,0,1-.44-.12,1.49,1.49,0,0,1-.43-.46l-12-17.18-1.8,15.12a.83.83,0,0,0,.38.9,6.53,6.53,0,0,0,1.82.48c.22,0,.32.22.28.52a2.37,2.37,0,0,1-.13.51l-1.73-.11c-.59,0-1.14,0-1.64,0s-1,0-1.64,0-1.2.07-1.71.11a3,3,0,0,1,0-.51.53.53,0,0,1,.44-.52,6.4,6.4,0,0,0,1.74-.48,1.09,1.09,0,0,0,.54-.9l2-16.5a.78.78,0,0,0-.31-.78,3.88,3.88,0,0,0-1.59-.44c-.25,0-.36-.22-.32-.54a9,9,0,0,1,.13-.51l1.31.09,1.17.05,1.11,0a8.93,8.93,0,0,1,1.32.06.75.75,0,0,1,.5.32Z"/><path class="cls-5" d="M824.37,634.72c-.4,0-.81,0-1.21,0l-1.14,0-.91.07-.49,0s0-.1,0-.22v-.29A.42.42,0,0,1,821,634a7.73,7.73,0,0,0,1.5-.38.89.89,0,0,0,.64-.74l1-8.73a1.93,1.93,0,0,0-.2-1.38,2.17,2.17,0,0,0-1.52-.52q-.43-.06-.39-.45a2,2,0,0,1,.11-.41c.3,0,.73,0,1.28,0s1-.07,1.35-.11c.54-.09,1-.18,1.46-.28a5.6,5.6,0,0,1,.93-.14c.33,0,.47.16.44.48a9.28,9.28,0,0,1-.23,1.08,10.35,10.35,0,0,0-.3,1.65L826,632.86a.67.67,0,0,0,.45.74,6.13,6.13,0,0,0,1.47.38c.18,0,.25.17.23.39,0,.06,0,.16,0,.29a.67.67,0,0,1-.08.22l-.47,0-.87-.07-1.13,0C825.17,634.72,824.76,634.72,824.37,634.72Zm-1.85-20.25a.9.9,0,0,1-.09-.39.47.47,0,0,1,.14-.27,1.36,1.36,0,0,1,.48-.31c.67.62,1.29,1.17,1.87,1.66s1.16.93,1.76,1.36q1-.64,1.86-1.35l2.07-1.67c.37.17.54.38.51.61a.87.87,0,0,1-.18.36l-4,4.68a7.39,7.39,0,0,1-.74,0,2,2,0,0,1-.49-.11,1,1,0,0,1-.35-.23,2.07,2.07,0,0,1-.34-.4Z"/><path class="cls-5" d="M844,624a6.89,6.89,0,0,0,.66-.58,11.44,11.44,0,0,1,1.4-1.09,12.19,12.19,0,0,1,1.9-1,5.63,5.63,0,0,1,2.28-.46,5.3,5.3,0,0,1,1.56.22,3,3,0,0,1,1.25.74,3.07,3.07,0,0,1,.76,1.32,4.68,4.68,0,0,1,.11,2l-.92,7.83c0,.32.14.56.53.72a6.28,6.28,0,0,0,1.38.37c.18,0,.26.17.23.39a2.37,2.37,0,0,1-.13.51l-1.74-.11c-.56,0-1.19,0-1.89,0s-1.23,0-1.84,0l-1.84.11a3,3,0,0,1,0-.51A.42.42,0,0,1,848,634a3.34,3.34,0,0,0,.66-.13,5.83,5.83,0,0,0,.63-.22,2.23,2.23,0,0,0,.5-.31.63.63,0,0,0,.24-.43l.75-6.29a9.66,9.66,0,0,0,.07-1.48,2.8,2.8,0,0,0-.26-1.17,1.69,1.69,0,0,0-.7-.77,2.51,2.51,0,0,0-1.26-.27,5.71,5.71,0,0,0-1.72.27,5.24,5.24,0,0,0-1.56.8,4.69,4.69,0,0,0-1.17,1.3,4.27,4.27,0,0,0-.59,1.77l-.69,5.84c0,.32.13.56.5.72a5.58,5.58,0,0,0,1.27.37.31.31,0,0,1,.27.39,3.17,3.17,0,0,1-.13.51l-1.76-.11c-.57,0-1.19,0-1.84,0s-1.32,0-1.93,0l-1.78.11a2.23,2.23,0,0,1,0-.51.39.39,0,0,1,.32-.39,7.52,7.52,0,0,0,1.47-.37.94.94,0,0,0,.71-.75l2-17.27a1.63,1.63,0,0,0-.26-1.38,2.82,2.82,0,0,0-1.6-.48c-.3-.05-.43-.2-.4-.45a2.54,2.54,0,0,1,.12-.45c.3,0,.72,0,1.26-.05l1.47-.11a12.47,12.47,0,0,0,1.46-.26,4.37,4.37,0,0,1,.94-.16c.21,0,.34,0,.4.13a.47.47,0,0,1,.06.35,8.3,8.3,0,0,1-.25,1.27,11,11,0,0,0-.3,1.69Z"/><path class="cls-5" d="M871.72,633.85c.25,0,.36.23.33.68a4.55,4.55,0,0,1-2.35.58,3.63,3.63,0,0,1-1.31-.21,2.48,2.48,0,0,1-.88-.57,2.16,2.16,0,0,1-.5-.8,3.25,3.25,0,0,1-.17-.93,5.63,5.63,0,0,1-2.3,2,7.18,7.18,0,0,1-2.81.53,9.37,9.37,0,0,1-1.46-.12,4.23,4.23,0,0,1-1.42-.46,2.43,2.43,0,0,1-1.27-2.7,3.59,3.59,0,0,1,.84-2,5.61,5.61,0,0,1,1.72-1.35,10.4,10.4,0,0,1,2.18-.85c.77-.22,1.52-.4,2.23-.55.4-.06.77-.13,1.12-.21a7.93,7.93,0,0,0,.91-.24,1.07,1.07,0,0,0,.65-.35,2.4,2.4,0,0,0,.22-.87,4.27,4.27,0,0,0-.33-2.49,2.15,2.15,0,0,0-2.1-1,3.83,3.83,0,0,0-1,.13,2,2,0,0,0-.74.4,2.89,2.89,0,0,0-.57.73,9.42,9.42,0,0,0-.54,1.06,1,1,0,0,1-.53.51,9.82,9.82,0,0,1-1.28.38,3.74,3.74,0,0,1-.53.13,2.41,2.41,0,0,1-.53.07c-.23,0-.32-.23-.27-.68a2.54,2.54,0,0,1,.76-1.41,6.75,6.75,0,0,1,1.66-1.25,10.48,10.48,0,0,1,2.09-.88,7.11,7.11,0,0,1,2.09-.34,10.78,10.78,0,0,1,2.16.19,3.64,3.64,0,0,1,1.59.71,2.73,2.73,0,0,1,.91,1.38,5.54,5.54,0,0,1,.1,2.25l-.65,5.52a10.41,10.41,0,0,0-.11,1.62,2.15,2.15,0,0,0,.17.78,1.11,1.11,0,0,0,.47.6,1.3,1.3,0,0,0,.58.14,1.76,1.76,0,0,0,.55-.06A1,1,0,0,1,871.72,633.85Zm-4.53-6.26-1.13.16c-.62.11-1.22.24-1.81.39a6.28,6.28,0,0,0-1.59.63,3.73,3.73,0,0,0-1.18,1,2.91,2.91,0,0,0-.58,1.51,2.18,2.18,0,0,0,.46,1.86,2.09,2.09,0,0,0,1.61.64,3.6,3.6,0,0,0,1.34-.27,4.15,4.15,0,0,0,1.21-.77,4.85,4.85,0,0,0,.9-1.18,3.9,3.9,0,0,0,.47-1.47Zm-4.37-13.12a.9.9,0,0,1-.09-.39.54.54,0,0,1,.14-.27,1.36,1.36,0,0,1,.48-.31c.67.62,1.29,1.17,1.87,1.66s1.16.93,1.76,1.36q1-.64,1.86-1.35l2.07-1.67c.37.17.54.38.51.61a.87.87,0,0,1-.18.36l-4,4.68a7.39,7.39,0,0,1-.74,0A2,2,0,0,1,866,619a1,1,0,0,1-.35-.23,2.07,2.07,0,0,1-.34-.4Z"/><path class="cls-5" d="M874.36,628a7.24,7.24,0,0,1,.93-2.8,8.56,8.56,0,0,1,1.92-2.27,9.11,9.11,0,0,1,2.62-1.53,8.73,8.73,0,0,1,3.1-.56,8.47,8.47,0,0,1,3.06.53,6.39,6.39,0,0,1,2.27,1.46,5.39,5.39,0,0,1,1.32,2.26,6.81,6.81,0,0,1,.23,2.91,7.2,7.2,0,0,1-.94,2.81A8.63,8.63,0,0,1,887,633a9.14,9.14,0,0,1-2.63,1.52,8.87,8.87,0,0,1-6.15,0,6.44,6.44,0,0,1-2.27-1.46,5.61,5.61,0,0,1-1.33-2.25A7,7,0,0,1,874.36,628Zm3.38-1.06a11,11,0,0,0,0,2.44,7.22,7.22,0,0,0,.58,2.26,4.4,4.4,0,0,0,1.27,1.67,3.27,3.27,0,0,0,2.11.66,4.29,4.29,0,0,0,3.22-1.29,5.52,5.52,0,0,0,1.48-3.3,12.84,12.84,0,0,0,0-2.49,8.06,8.06,0,0,0-.55-2.38,4.73,4.73,0,0,0-1.28-1.78,3.29,3.29,0,0,0-2.19-.7,4.4,4.4,0,0,0-3.1,1.17A5.88,5.88,0,0,0,877.74,626.89Z"/><text class="cls-6" transform="matrix(1, 0, -0.08, 1, 804.3, 710.26)"><tspan class="cls-7">h</tspan><tspan class="cls-8" x="14.5" y="0">e</tspan><tspan x="25.25" y="0">llo</tspan></text><ellipse class="cls-3" cx="608.94" cy="491.28" rx="8.67" ry="7.91" transform="translate(-173.46 488.47) rotate(-38.69)"/><line class="cls-9" x1="624.54" y1="488.37" x2="663.66" y2="488.37"/><line class="cls-9" x1="623.63" y1="495.69" x2="642.37" y2="495.69"/><ellipse class="cls-3" cx="604.62" cy="522.91" rx="8.67" ry="7.91" transform="translate(-194.18 492.71) rotate(-38.69)"/><line class="cls-9" x1="620.22" y1="520" x2="659.33" y2="520"/><line class="cls-9" x1="619.31" y1="527.32" x2="638.05" y2="527.32"/><ellipse class="cls-5" cx="600.71" cy="554.8" rx="8.67" ry="7.91" transform="translate(-214.98 497.27) rotate(-38.69)"/><line class="cls-10" x1="616.31" y1="551.9" x2="655.43" y2="551.9"/><line class="cls-10" x1="615.4" y1="559.21" x2="634.14" y2="559.21"/><ellipse class="cls-3" cx="596.39" cy="586.43" rx="8.67" ry="7.91" transform="translate(-235.7 501.51) rotate(-38.69)"/><line class="cls-9" x1="611.99" y1="583.53" x2="651.1" y2="583.53"/><line class="cls-9" x1="611.08" y1="590.85" x2="629.82" y2="590.85"/><line class="cls-4" x1="695.76" y1="467.6" x2="662.68" y2="722.3"/><path class="cls-5" d="M597.83,718.94H578.49a3.13,3.13,0,0,1-3.17-3.52l1.39-14.11a4,4,0,0,1,3.85-3.51H599.9a3.12,3.12,0,0,1,3.17,3.51l-1.38,14.11A4,4,0,0,1,597.83,718.94Z"/><polygon class="cls-2" points="584.66 702.68 583.53 714.21 595.65 708.12 584.66 702.68"/><path class="cls-5" d="M628.88,718.68H609.54a3.13,3.13,0,0,1-3.17-3.51l1.38-14.11a4,4,0,0,1,3.86-3.52H631a3.14,3.14,0,0,1,3.17,3.52l-1.38,14.11A4,4,0,0,1,628.88,718.68Z"/><polygon class="cls-2" points="619.17 702.35 615.65 702.35 614.51 713.88 618.04 713.88 619.17 702.35"/><polygon class="cls-2" points="625.98 702.35 622.46 702.35 621.32 713.88 624.85 713.88 625.98 702.35"/></svg>