<svg id="Layer_1" data-name="Layer 1" xmlns="http://www.w3.org/2000/svg" viewBox="0 0 1200 1200"><defs><style>.cls-1{fill:#e9e8e8;}.cls-2{fill:#fff;}.cls-3,.cls-6,.cls-7{fill:none;}.cls-3,.cls-6{stroke:#1d252e;stroke-linecap:round;stroke-width:2px;}.cls-4{fill:#1d252e;}.cls-5{fill:#9dd5c0;}.cls-6{stroke-linejoin:round;}</style></defs><rect class="cls-1" x="517.08" y="595.9" width="7.37" height="205.76"/><rect class="cls-1" x="769.52" y="595.9" width="156.01" height="205.76"/><rect class="cls-1" x="504.18" y="598.97" width="433.62" height="10.44"/><rect class="cls-1" x="769.52" y="467.44" width="141.27" height="112.48" rx="9.03"/><rect class="cls-1" x="819.88" y="575.01" width="41.15" height="23.95"/><rect class="cls-1" x="171.99" y="390.73" width="203.83" height="410.92"/><rect class="cls-1" x="187.95" y="796.21" width="18.86" height="13.06"/><rect class="cls-1" x="331.56" y="796.21" width="18.86" height="13.06"/><rect class="cls-1" x="414.38" y="757.69" width="82.66" height="48.86"/><rect class="cls-1" x="945.35" y="757.69" width="82.66" height="48.86"/><rect class="cls-1" x="945.35" y="731.71" width="82.66" height="22.01"/><rect class="cls-2" x="469.16" y="362.43" width="98.16" height="144.63"/><circle class="cls-1" cx="885.37" cy="315.58" r="34.85"/><path class="cls-1" d="M464.71,357.62v157H574v-157Zm99.35,147.53H474.65V367h89.41Z"/><path id="Path-94" class="cls-2" d="M906.57,699l-2,33.81,23.66,123.09-42.44,34.78a1.23,1.23,0,0,0-.17,1.73,1.2,1.2,0,0,0,1,.45q60.48-4,64.58-6t3-17.34L935.27,735.88l2.3-31"/><path id="Path-94-2" data-name="Path-94" class="cls-2" d="M974.28,706.91l6.1,21.83,70.33,95.71,1,54.86a1.23,1.23,0,0,0,1.25,1.21,1.26,1.26,0,0,0,1-.53q34.35-49.93,35.27-54.43t-11.77-13.06l-68-88.14-1.75-21.86"/><path class="cls-2" d="M1026.23,492.77c.31,1.41,1.25,5.7,2,6.93,8.52-7.73,25.85-24.67,43.54-42.35,0,0-8.82-40.36,14.52-31,12,4.16.4,30.07.4,30.07-2.26,6.5-50.09,66.27-52.22,67.41-3.67,1.95-8.93,1.12-12.67-.09-6.76-2.19-14.66-6.13-21.57-16.41"/><path class="cls-2" d="M899.65,517.53c-4.84,6.87-9.7,10.84-15.74,10.84-3.93,0-7.32,0-48.6-27.52A335.2,335.2,0,0,1,798.85,472s-47.87-4.2-26.54-14.41,36.86,2.83,36.86,2.83c26.68,18.57,57.21,35.51,70.76,43.42l3.65-6.13,19.18,12.63Z"/><path class="cls-3" d="M899.65,517.53c-4.84,6.87-9.7,10.84-15.74,10.84-3.93,0-7.32,0-48.6-27.52A335.2,335.2,0,0,1,798.85,472s-47.87-4.2-26.54-14.41,36.86,2.83,36.86,2.83c26.68,18.57,57.21,35.51,70.76,43.42"/><path id="Path-102" class="cls-4" d="M932.21,380.84q-2-10.66,2.47-16.24c4.51-5.59,15-12.43,29-9.37s24.1,16.68,25.94,30.93q1.83,14.25-5.18,29.75-4.2,4.88-8.36,4.55c-4.17-.33-12.42-3.13-15-6.39Q958.57,410.81,932.21,380.84Z"/><polygon id="Path-103" class="cls-2" points="934.04 380.98 929.38 390.96 929.69 403.04 935 412.2 941.22 416.77 943.45 441.5 930.2 439.87 931.08 456.51 964.55 464.17 977 448.91 972.63 444.77 961.39 442.78 959.69 418.22 966.53 410.58 970.05 403.05 975.35 402.89 977.61 394.76 974.2 390.27 967.4 388.24 963.57 380.29 964.99 373.99 945.5 381.88 934.04 380.98"/><path id="Path-89" class="cls-4" d="M912.31,583.59Q899.46,646,896.14,671.71t-3.37,31.78q78,7.31,96.56,4.38t31.16-11.12q-14.93-90.64-25-113.16T912.31,583.59Z"/><path id="Path-86" class="cls-3" d="M934,381a28.1,28.1,0,0,0-4.79,19.9q1.39,10.74,12.67,15.9l1.53,24.72-6.52-.8"/><path id="Path-87" class="cls-3" d="M934.47,380.27q2.44,2,10.27.81T965,374a12.61,12.61,0,0,0-.69,8.63,12,12,0,0,0,4.56,6.84q6.67-1.15,8.07,4.08c1.4,5.23-.65,9.29-2.42,9.86a7,7,0,0,1-4.46-.35q-.21,3.92-4.32,8.7t-5.91,5.09l1.57,25.94,12.34,1.74"/><path id="Path-94-3" data-name="Path-94" class="cls-3" d="M976,713.14l4.36,15.6,70.33,95.71,1,54.86a1.23,1.23,0,0,0,1.25,1.21,1.26,1.26,0,0,0,1-.53q34.35-49.93,35.27-54.43t-11.77-13.06l-68-88.14-2-17.45"/><path id="Path-94-4" data-name="Path-94" class="cls-3" d="M905.87,707.83l-1.27,25,23.66,123.09-42.44,34.78a1.23,1.23,0,0,0-.17,1.73,1.2,1.2,0,0,0,1,.45q60.48-4,64.58-6t3-17.34L935.27,735.88,937,712.3"/><path id="Path-98" class="cls-3" d="M939.88,415.72a13.28,13.28,0,0,0,4.85,2,22.24,22.24,0,0,0,7.79.3"/><path id="Path-104" class="cls-3" d="M974.94,422.53a7,7,0,0,0,4.06.32c1.65-.27,3.56-1.47,5.71-3.6"/><path id="Path-105" class="cls-4" d="M975.2,425.23q1.47.88,5.29.41a9.11,9.11,0,0,0,6.47-4.32q3.12.24,5.71,6.53c2.59,6.28.09,13.74,2.28,17.94a24.29,24.29,0,0,0,7.44,8.06q-18.35.76-23.82-10T975.2,425.23Z"/><path id="Path-88" class="cls-5" d="M934.36,438.88c.32,5.29,4.65,17.87,14.09,19s28.55-13,28.55-13,21.94,1.2,29,7,19.31,17.72,27.45,38.27c-7,3.41-29.68,15.21-34.67,18.88l-9.16-7.1,7.17,82-87,2q1.14-20.57,1.76-29c1.66-22.82,5.3-54,3.69-55.06l-8.84,14.59-30.85-19.24c11.06-33.58,23.79-45.32,29.94-52S921.27,436.47,934.36,438.88Z"/><path class="cls-3" d="M1026.74,495.71a12.38,12.38,0,0,0,1.51,4c8.52-7.73,25.85-24.67,43.54-42.35,0,0-8.82-40.36,14.52-31,12,4.16.4,30.07.4,30.07-2.26,6.5-50.09,66.27-52.22,67.41-3.67,1.95-8.93,1.12-12.67-.09-6.76-2.19-12.09-3.32-19-13.6"/><path class="cls-2" d="M344.78,427.1c1.06,11.27,13.81,18.23,23.85,12.86l49.71-23.17,11.91-80.12c3.07-.88,12.49-5.45,13.41-18.6s-9.24-13.66-16.16-5.61c0,0-8.84,11.43-7.87,15.32s-21.5,69.12-22.95,70.92l-40.34,11A16.42,16.42,0,0,0,344.78,427.1Z"/><path class="cls-3" d="M371.66,438.54l46.68-21.75,11.91-80.12c3.07-.88,12.49-5.45,13.41-18.6s-9.24-13.66-16.16-5.61c0,0-8.84,11.43-7.87,15.32s-21.5,69.12-22.95,70.92l-29.51,8"/><path class="cls-2" d="M120.85,475.59l68.55,35,33.34-18.25A16.21,16.21,0,1,0,204,466.07l-25.59,17.05-47.05-18.27c-1.53-15.65-18.95-30.66-22.73-20.24C104.47,456.17,108.5,462.87,120.85,475.59Z"/><path class="cls-3" d="M199.29,469.5l-20.85,13.62-47.05-18.27c-1.53-15.65-18.95-30.66-22.73-20.24-4.19,11.56-.16,18.26,12.19,31l68.55,35,29.84-16.34"/><path id="Path-109" class="cls-2" d="M362.08,679.91,350.23,849.58s43.93,25,43.22,26.41S319,884.51,319,884.51l8.6-204.78Z"/><path id="Path-109-Copy" class="cls-2" d="M292.6,711.35c-9,6.4-81.42-16.5-104.79-22.64-12.68-3.34-62.43-18.15-62.43-18.15s-41.09,43.69-41.47,42.58S91.15,646.57,95.76,643c5.9-3,89.62,13.71,148.35,25.88.42.08,1.57-6.94,2-6.85a237.76,237.76,0,0,1,55,18.71S301.63,705,292.6,711.35Z"/><path id="Path-102-2" data-name="Path-102" class="cls-4" d="M316.11,355q2.94-10.92-1.31-17.08c-4.26-6.16-14.6-14.08-29.47-12S259,341.41,256,356.1c-2,9.79-7.86,58.36-.91,70.24,4.55,3.84,37-12.28,41.94-12.29,7.45,0-16.45-23.53-13.53-26.71Q286.36,384.15,316.11,355Z"/><path id="Path-103-2" data-name="Path-103" class="cls-2" d="M314.19,355l4.07,10.74c3.14,11.61.22,25.12-14.31,25.93-.73,0,.06,12.84.06,12.84l.53,10,13.74-.87-1.07,11.87L283.9,438.63l-15.24-13.78,16.14-8.42-.17-24.66-6.52-8.48-3.08-8.1-5.5-.58L267.81,366l3.89-4.41,7.23-1.58,4.6-8-1-6.66,19.66,9.72Z"/><path id="Path-89-2" data-name="Path-89" class="cls-4" d="M346.56,555.06q20.25,63.33,26.54,89.59t7,32.58c-53.39,10.82-84.58,14.52-107.31,12.71-20.82-6.66-23.54-22.87-32.86-27.6,3.62-63.77,15-81.75,20.34-98.06S294.33,544.89,346.56,555.06Z"/><path id="Path-86-2" data-name="Path-86" class="cls-6" d="M314.19,355c3.81,6.67,7.13,13.86,5.61,21.24-1.92,9.57-6.43,15.19-16.53,15.88l1.25,21.91,9.76-.62"/><path id="Path-87-2" data-name="Path-87" class="cls-3" d="M313.8,354.25q-2.7,1.9-10.74,0t-20.51-8.94a13.16,13.16,0,0,1,0,9,12.5,12.5,0,0,1-5.27,6.76q-6.85-1.72-8.71,3.61c-1.87,5.34,0,9.72,1.75,10.46a7.46,7.46,0,0,0,4.67,0q-.09,4.08,3.81,9.38t5.76,5.75l.48,26.42-10.41,4.63"/><path id="Path-88-2" data-name="Path-88" class="cls-5" d="M317.41,413q-.46,8.28-10,14.37t-37-4.77q-19.56,3.45-31.67,11t-37.6,30.91q7.47,9.53,14,16.76a77.4,77.4,0,0,1,11,15.81L260.05,479,259,564.78l90.45-7.54q-3.48-21.19-5-29.87c-4.26-23.48-7.26-34.39-8-38.21,2.58-1.21,6.83-23.09,3.13-30.29L367,446.6c-1.26-15.67-2.55-31.17-5.84-40.05C349.25,403.1,331.05,410.46,317.41,413Z"/><path id="Path-94-5" data-name="Path-94" class="cls-3" d="M241.23,668.43,112.81,642.54q-15.72-2.52-18.26,1.7T83.14,710.92a1.27,1.27,0,0,0,.38,1.11,1.29,1.29,0,0,0,1.82,0l39.54-41.38S274,718,292.6,711.35c0,0,6.24-2.65,7.36-16"/><path id="Path-96" class="cls-3" d="M327.11,691.93,319,884.51l73.38-7.84a1.42,1.42,0,0,0,1.05-.68,1.25,1.25,0,0,0-.36-1.76l-42.86-24.65,12.16-161.84"/><path id="Path-98-2" data-name="Path-98" class="cls-3" d="M302.59,392a23.23,23.23,0,0,1-8.12-.3"/><path id="Path-99" class="cls-3" d="M332.07,443.39q8.61,12.51,9.16,25.74t-4.81,20l6.18,28.73"/><path id="Path-100" class="cls-3" d="M296.28,488q-8.49,7.56-15.37,8.41"/><line id="Path-101" class="cls-3" x1="260.16" y1="472.24" x2="259.7" y2="507.06"/><path id="Path-33" class="cls-2" d="M679.4,823.64q2.69,22,2.54,28.41A130.62,130.62,0,0,0,683,869.77l63.77-3.87a1.86,1.86,0,0,0,.92-3.4Q704.25,833.66,704,829.3l-.12-11.84-25.23.09c.27,2.12.53,4.15.76,6.09"/><path id="Path-32" class="cls-2" d="M438.62,763.28c-4.22,5-9.94,11.4-11.16,12.84-1.84,2.17-23.08,21.49-21.55,23.59s54.17,51,51.63,40.17-11.79-43.54-8.09-47.89l10-12.48Z"/><path id="Path-31" class="cls-4" d="M581.85,560,514.22,675.23l-84,85.15Q445.37,777.17,454.1,784t15,6.67l93.55-91.55,45.85-72.46a46.12,46.12,0,0,0,7.66,4.08,50.16,50.16,0,0,0,8.71,2.19l38.38,59.49,1.65,128.08q17.61,1.15,26.22.36a80.2,80.2,0,0,0,19.21-4.56L708.8,684.9l-30.16-88.8Z"/><path class="cls-2" d="M651.69,421.25l13.79-.53,8.27-18.19s-5.26-5.07-2.64-13.55c-.73-.29-8.84-2.88-5.93-9.51a6.56,6.56,0,0,1,5.29-4.39s-1.21-9,.35-9.77,10.1-2.26,19.69,2,17.57,3.69,18,5.52,2.64,13.71,2.33,18.87-5.05,13.72-12.22,17.29a20.45,20.45,0,0,1-9,1.68c-.81,2.4-6.94,15.36-5.78,15.6s15.11,2.65,16.06,3-14.69,9.39-19.09,9.18c0,0-10.84,1-20.39-4.64s-8.74-13.65-8.74-13.65"/><path id="Path-20" class="cls-6" d="M658.18,420.68c3,0,7.3,0,7.3,0l8.27-18.19s-2.48-4.49-2.77-6a28.34,28.34,0,0,1,.13-7.54q-8.65-2.67-5.93-9.51t10.09-3"/><path id="Path-21" class="cls-6" d="M709.36,379.91q3.17,11.82-.23,18.53-7.73,13.24-19.36,11.88l-6.33,15.88,8,1.63"/><path id="Path-22" class="cls-6" d="M669.81,371.8a12.35,12.35,0,0,1,7.56,1.34"/><path id="Path-23" class="cls-4" d="M669.38,368.93a25.33,25.33,0,0,1,10.43,1.29c.71-1.11,1.56-2.34,2.52-3.69q5.13,12.63,26,8.29c20.86-4.35,11-40.92-10.47-34.82q-11.64,3.47-14.28,7.47Q676,345.67,673,349.3,667.95,353.85,669.38,368.93Z"/><path id="Path-24" class="cls-5" d="M653,420.06q7,15.76,21,16.58c14,.83,19-1.79,23-7.87,2.83-4.71,34.86-11.69,39.6-15.11s26.63,24.58,17.8,46.75l-40.71,26.22q-5.94,29.14-12.85,51.45t-16.24,57.75q-40.32-1.43-59-8.19T578.2,557.3l28.67-66.36c2.16-26.68,10.9-68.16,20.61-68.74C634,421.81,623.6,422.56,653,420.06Z"/><path id="Path-28" class="cls-6" d="M714.41,481.91c-3.61,16.87-5.39,27.86-8.13,36.71"/><path id="Path-26" class="cls-2" d="M589.4,430.07c-33.09-.2-73.39,10.28-85.72,9.13-4.6-1.14-7.28-3.14-10.62-5.86s-11.05-8.11-20.15-9.74-24.3,3.37-11.54,13.55c8.5,6.78,19.72,15.07,34.23,14,50.29,8.46,83.6,8.34,96.82,0"/><path id="Path-26-2" data-name="Path-26" class="cls-6" d="M584.48,430.05c-33.09-.2-69.53,9.62-81.85,8.47-4.61-1.14-7.28-3.14-10.62-5.86s-11.05-8.11-20.15-9.74-24.3,3.37-11.54,13.55c8.5,6.79,19.72,15.07,34.22,14,50.3,8.46,82.42,8.84,90.78,2.64"/><path id="Path-24-2" data-name="Path-24" class="cls-5" d="M587,427.63s62.09-10.56,64.86-7.26c3.93,4.69-.28,37.45-6.52,43-4.06,8.84-32.93,10.67-59,11.55"/><path id="Path-32-2" data-name="Path-32" class="cls-6" d="M432.5,770.19l-5,5.93c-1.84,2.17-23.08,21.49-21.55,23.59s54.17,51,51.63,40.17-11.79-43.54-8.09-47.89l1.84-2.29"/><path id="Path-33-2" data-name="Path-33" class="cls-6" d="M679.4,823.64q2.69,22,2.54,28.41A130.62,130.62,0,0,0,683,869.77l63.77-3.87a1.86,1.86,0,0,0,.92-3.4Q704.25,833.66,704,829.3l-.07-6.95"/><path class="cls-6" d="M621.67,472.5c-8.39,1.82-35.3,2.44-35.3,2.44"/><polyline class="cls-6" points="608.48 474.44 608.3 482.17 605.28 493.76"/><path class="cls-6" d="M714.19,486.27c.76-.49,8.5-5.92,8.5-5.92"/><path id="Path-26-3" data-name="Path-26" class="cls-2" d="M675.07,358.41c-.61-3.6,1.4-6.53,9-6.55q16.32,0,35.53,10.3c43.78,21.14,62.24,51.4,62.71,61.79-1.77,10.49-9.33,16.12-13.54,19.21-2.83,2.08-14.17,12.38-14.91,12.93-12.65-7.74-15-24-15.39-38.32l10.62-7.24c-16.9-28.29-20.24-27.2-30.61-34a29.88,29.88,0,0,0-8.56-1.88S676.13,364.59,675.07,358.41Z"/><path id="Path-26-4" data-name="Path-26" class="cls-6" d="M743.82,414.15l5.32-3.62c0-.64-20.24-27.2-30.61-34a29.88,29.88,0,0,0-8.56-1.88s-33.84-10.1-34.9-16.28c-.61-3.6,1.4-6.53,9-6.55q16.32,0,35.53,10.3c43.78,21.14,62.24,51.4,62.71,61.79-1.77,10.49-20.42,25.58-23.85,27.81"/><line id="Path-25" class="cls-6" x1="743.83" y1="414.17" x2="749.14" y2="410.53"/><path class="cls-6" d="M918.6,467.71c-6.3,5.7-10.21,19.4-5.54,30.52,3.07,7,2.32,14.51,1.8,20.39"/><path class="cls-6" d="M967.23,519.86c4.33,2.43,12,1,14.55-1.87"/><line class="cls-6" x1="989.62" y1="501.88" x2="991.84" y2="527.26"/><circle class="cls-6" cx="403.08" cy="542.27" r="6.21"/><circle class="cls-6" cx="150.47" cy="333.81" r="4.9"/><circle class="cls-6" cx="756.41" cy="679.73" r="8.22"/><circle class="cls-6" cx="1063" cy="595.83" r="4.06"/><circle class="cls-6" cx="782.36" cy="560.02" r="5.06"/><circle class="cls-6" cx="1063" cy="379.91" r="8.22"/><circle class="cls-6" cx="537.62" cy="333.81" r="8.22"/><circle class="cls-6" cx="545.84" cy="782.12" r="8.22"/><circle class="cls-6" cx="92.11" cy="534.05" r="8.22"/><line class="cls-6" x1="130.04" y1="560.02" x2="141.32" y2="572.34"/><line class="cls-6" x1="145.57" y1="364.43" x2="141.32" y2="383.36"/><line class="cls-6" x1="520.37" y1="364.43" x2="507.54" y2="375.08"/><line class="cls-6" x1="432.66" y1="554.96" x2="443.72" y2="560.02"/><line class="cls-6" x1="529.4" y1="795.92" x2="520.37" y2="805.81"/><line class="cls-6" x1="772.2" y1="702.5" x2="787.42" y2="720.77"/><line class="cls-6" x1="838.88" y1="557.49" x2="833.24" y2="566.18"/><line class="cls-6" x1="1116.87" y1="380.98" x2="1105.59" y2="391.72"/><line class="cls-6" x1="1054.78" y1="619.79" x2="1058.94" y2="635.62"/><rect class="cls-7" width="1200" height="1200"/></svg>